# MagicaVoxel @ Ephtracy

# group
o 

# material
mtllib PookaSquishCardinal.mtl
usemtl palette

# normals
vn -1 0 0
vn 1 0 0
vn 0 0 1
vn 0 0 -1
vn 0 -1 0
vn 0 1 0

# texcoords
vt 0.138672 0.5
vt 0.185547 0.5
vt 0.419922 0.5
vt 0.962891 0.5

# verts
v -0.6 0.3 0.5
v -0.6 0.3 0.2
v -0.6 0.4 0.2
v -0.6 0.4 -0.4
v -0.6 0.5 0.5
v -0.6 0.5 0.4
v -0.6 0.5 0.3
v -0.6 0.5 -0.4
v -0.6 0.6 0.4
v -0.6 0.6 0.3
v -0.5 0.2 0.5
v -0.5 0.2 0.4
v -0.5 0.2 -0.3
v -0.5 0.3 0.5
v -0.5 0.3 0.4
v -0.5 0.3 0.2
v -0.5 0.3 -0.3
v -0.5 0.3 -0.4
v -0.5 0.4 0.2
v -0.5 0.4 -0.4
v -0.5 0.4 -0.5
v -0.5 0.5 0.5
v -0.5 0.5 0.4
v -0.5 0.5 0.3
v -0.5 0.5 0.2
v -0.5 0.5 -0.2
v -0.5 0.5 -0.4
v -0.5 0.5 -0.5
v -0.5 0.6 0.5
v -0.5 0.6 0.4
v -0.5 0.6 0.3
v -0.5 0.6 0.2
v -0.5 0.6 -0.2
v -0.4 0 0.2
v -0.4 0 -0.1
v -0.4 0.1 0.2
v -0.4 0.1 -0.1
v -0.4 0.2 0.2
v -0.4 0.2 -0.1
v -0.4 0.2 -0.3
v -0.4 0.2 -0.4
v -0.4 0.3 -0.3
v -0.4 0.3 -0.4
v -0.4 0.5 -0.2
v -0.4 0.5 -0.3
v -0.4 0.6 0.2
v -0.4 0.6 -0.1
v -0.4 0.6 -0.2
v -0.4 0.6 -0.3
v -0.4 0.7 0.2
v -0.4 0.7 -0.1
v -0.3 0 -0.1
v -0.3 0 -0.2
v -0.3 0.1 0.3
v -0.3 0.1 0.2
v -0.3 0.1 -0.1
v -0.3 0.1 -0.2
v -0.3 0.2 0.3
v -0.3 0.2 0.2
v -0.3 0.2 -0.1
v -0.3 0.2 -0.2
v -0.3 0.3 -0.4
v -0.3 0.3 -0.5
v -0.3 0.4 -0.4
v -0.3 0.4 -0.5
v -0.3 0.4 -0.6
v -0.3 0.5 -0.3
v -0.3 0.5 -0.4
v -0.3 0.5 -0.5
v -0.3 0.5 -0.6
v -0.3 0.6 0.3
v -0.3 0.6 0.2
v -0.3 0.6 -0.1
v -0.3 0.6 -0.2
v -0.3 0.6 -0.3
v -0.3 0.6 -0.4
v -0.3 0.7 0.3
v -0.3 0.7 0.2
v -0.3 0.7 -0.1
v -0.3 0.7 -0.2
v -0.2 0 0.2
v -0.2 0 0.1
v -0.2 0.1 0.4
v -0.2 0.1 0.3
v -0.2 0.1 0.2
v -0.2 0.1 0.1
v -0.2 0.1 -0.2
v -0.2 0.1 -0.3
v -0.2 0.2 0.4
v -0.2 0.2 0.3
v -0.2 0.2 -0.2
v -0.2 0.2 -0.3
v -0.2 0.6 0.4
v -0.2 0.6 0.3
v -0.2 0.6 -0.2
v -0.2 0.6 -0.3
v -0.2 0.7 0.4
v -0.2 0.7 0.3
v -0.2 0.7 -0.2
v -0.2 0.7 -0.3
v -0.1 0.2 -0.4
v -0.1 0.2 -0.7
v -0.1 0.3 0.6
v -0.1 0.3 0.5
v -0.1 0.3 -0.4
v -0.1 0.3 -0.5
v -0.1 0.3 -0.7
v -0.1 0.4 0.6
v -0.1 0.4 0.5
v 0.1 0 0.2
v 0.1 0 -0.1
v 0.1 0.1 0.2
v 0.1 0.1 -0.1
v 0.2 0 -0.1
v 0.2 0 -0.2
v 0.2 0.1 -0.1
v 0.2 0.1 -0.2
v 0.3 0 0.2
v 0.3 0 0.1
v 0.3 0.1 0.2
v 0.3 0.1 0.1
v -0.3 0 0.2
v -0.3 0 0.1
v -0.3 0.1 0.2
v -0.3 0.1 0.1
v -0.2 0 -0.1
v -0.2 0 -0.2
v -0.2 0.1 -0.1
v -0.2 0.1 -0.2
v -0.1 0 0.2
v -0.1 0 -0.1
v -0.1 0.1 0.2
v -0.1 0.1 -0.1
v -5.96046e-08 0.2 -0.4
v -5.96046e-08 0.2 -0.6
v -5.96046e-08 0.3 -0.4
v -5.96046e-08 0.3 -0.5
v -5.96046e-08 0.3 -0.6
v 0.1 0.3 0.6
v 0.1 0.3 0.5
v 0.1 0.4 0.6
v 0.1 0.4 0.5
v 0.2 0 0.2
v 0.2 0 0.1
v 0.2 0.1 0.4
v 0.2 0.1 0.3
v 0.2 0.1 0.2
v 0.2 0.1 0.1
v 0.2 0.1 -0.2
v 0.2 0.1 -0.3
v 0.2 0.2 0.4
v 0.2 0.2 0.3
v 0.2 0.2 -0.2
v 0.2 0.2 -0.3
v 0.2 0.2 -0.6
v 0.2 0.2 -0.7
v 0.2 0.3 -0.6
v 0.2 0.3 -0.7
v 0.2 0.6 0.4
v 0.2 0.6 0.3
v 0.2 0.6 -0.2
v 0.2 0.6 -0.3
v 0.2 0.7 0.4
v 0.2 0.7 0.3
v 0.2 0.7 -0.2
v 0.2 0.7 -0.3
v 0.3 0 -0.1
v 0.3 0 -0.2
v 0.3 0.1 0.3
v 0.3 0.1 0.2
v 0.3 0.1 -0.1
v 0.3 0.1 -0.2
v 0.3 0.2 0.3
v 0.3 0.2 0.2
v 0.3 0.2 -0.1
v 0.3 0.2 -0.2
v 0.3 0.3 -0.4
v 0.3 0.3 -0.5
v 0.3 0.4 -0.4
v 0.3 0.4 -0.5
v 0.3 0.4 -0.6
v 0.3 0.5 -0.3
v 0.3 0.5 -0.4
v 0.3 0.5 -0.5
v 0.3 0.5 -0.6
v 0.3 0.6 0.3
v 0.3 0.6 0.2
v 0.3 0.6 -0.1
v 0.3 0.6 -0.2
v 0.3 0.6 -0.3
v 0.3 0.6 -0.4
v 0.3 0.7 0.3
v 0.3 0.7 0.2
v 0.3 0.7 -0.1
v 0.3 0.7 -0.2
v 0.4 0 0.2
v 0.4 0 -0.1
v 0.4 0.1 0.2
v 0.4 0.1 -0.1
v 0.4 0.2 0.2
v 0.4 0.2 -0.1
v 0.4 0.2 -0.3
v 0.4 0.2 -0.4
v 0.4 0.3 -0.3
v 0.4 0.3 -0.4
v 0.4 0.5 -0.2
v 0.4 0.5 -0.3
v 0.4 0.6 0.2
v 0.4 0.6 -0.1
v 0.4 0.6 -0.2
v 0.4 0.6 -0.3
v 0.4 0.7 0.2
v 0.4 0.7 -0.1
v 0.5 0.2 0.5
v 0.5 0.2 0.4
v 0.5 0.2 -0.3
v 0.5 0.3 0.5
v 0.5 0.3 0.4
v 0.5 0.3 0.2
v 0.5 0.3 -0.3
v 0.5 0.3 -0.4
v 0.5 0.4 0.2
v 0.5 0.4 -0.4
v 0.5 0.4 -0.5
v 0.5 0.5 0.5
v 0.5 0.5 0.4
v 0.5 0.5 0.3
v 0.5 0.5 0.2
v 0.5 0.5 -0.2
v 0.5 0.5 -0.4
v 0.5 0.5 -0.5
v 0.5 0.6 0.5
v 0.5 0.6 0.4
v 0.5 0.6 0.3
v 0.5 0.6 0.2
v 0.5 0.6 -0.2
v 0.6 0.3 0.5
v 0.6 0.3 0.2
v 0.6 0.4 0.2
v 0.6 0.4 -0.4
v 0.6 0.5 0.5
v 0.6 0.5 0.4
v 0.6 0.5 0.3
v 0.6 0.5 -0.4
v 0.6 0.6 0.4
v 0.6 0.6 0.3
v -0.1 0.3 0.6
v -0.1 0.4 0.6
v 0.1 0.3 0.6
v 0.1 0.4 0.6
v -0.6 0.3 0.5
v -0.6 0.5 0.5
v -0.5 0.2 0.5
v -0.5 0.3 0.5
v -0.5 0.4 0.5
v -0.5 0.5 0.5
v -0.5 0.6 0.5
v -0.4 0.3 0.5
v -0.4 0.4 0.5
v -0.3 0.4 0.5
v -0.3 0.5 0.5
v -0.1 0.2 0.5
v -0.1 0.3 0.5
v -0.1 0.4 0.5
v -0.1 0.5 0.5
v 0.1 0.2 0.5
v 0.1 0.3 0.5
v 0.1 0.4 0.5
v 0.1 0.5 0.5
v 0.3 0.4 0.5
v 0.3 0.5 0.5
v 0.4 0.3 0.5
v 0.4 0.4 0.5
v 0.5 0.2 0.5
v 0.5 0.3 0.5
v 0.5 0.4 0.5
v 0.5 0.5 0.5
v 0.5 0.6 0.5
v 0.6 0.3 0.5
v 0.6 0.5 0.5
v -0.6 0.5 0.4
v -0.6 0.6 0.4
v -0.5 0.5 0.4
v -0.5 0.6 0.4
v -0.2 0.1 0.4
v -0.2 0.2 0.4
v -0.2 0.6 0.4
v -0.2 0.7 0.4
v -0.1 0.2 0.4
v 0.1 0.2 0.4
v 0.2 0.1 0.4
v 0.2 0.2 0.4
v 0.2 0.6 0.4
v 0.2 0.7 0.4
v 0.5 0.5 0.4
v 0.5 0.6 0.4
v 0.6 0.5 0.4
v 0.6 0.6 0.4
v -0.3 0.1 0.3
v -0.3 0.2 0.3
v -0.3 0.6 0.3
v -0.3 0.7 0.3
v -0.2 0.1 0.3
v -0.2 0.2 0.3
v -0.2 0.6 0.3
v -0.2 0.7 0.3
v 0.2 0.1 0.3
v 0.2 0.2 0.3
v 0.2 0.6 0.3
v 0.2 0.7 0.3
v 0.3 0.1 0.3
v 0.3 0.2 0.3
v 0.3 0.6 0.3
v 0.3 0.7 0.3
v -0.4 0 0.2
v -0.4 0.1 0.2
v -0.4 0.2 0.2
v -0.4 0.6 0.2
v -0.4 0.7 0.2
v -0.3 0 0.2
v -0.3 0.1 0.2
v -0.3 0.2 0.2
v -0.3 0.6 0.2
v -0.3 0.7 0.2
v -0.2 0 0.2
v -0.2 0.1 0.2
v -0.1 0 0.2
v -0.1 0.1 0.2
v 0.1 0 0.2
v 0.1 0.1 0.2
v 0.2 0 0.2
v 0.2 0.1 0.2
v 0.3 0 0.2
v 0.3 0.1 0.2
v 0.3 0.2 0.2
v 0.3 0.6 0.2
v 0.3 0.7 0.2
v 0.4 0 0.2
v 0.4 0.1 0.2
v 0.4 0.2 0.2
v 0.4 0.6 0.2
v 0.4 0.7 0.2
v -0.3 0 0.1
v -0.3 0.1 0.1
v -0.2 0 0.1
v -0.2 0.1 0.1
v 0.2 0 0.1
v 0.2 0.1 0.1
v 0.3 0 0.1
v 0.3 0.1 0.1
v -5.96046e-08 0.2 -0.6
v -5.96046e-08 0.3 -0.6
v 0.2 0.2 -0.6
v 0.2 0.3 -0.6
v -0.6 0.5 0.3
v -0.6 0.6 0.3
v -0.5 0.5 0.3
v -0.5 0.6 0.3
v 0.5 0.5 0.3
v 0.5 0.6 0.3
v 0.6 0.5 0.3
v 0.6 0.6 0.3
v -0.6 0.3 0.2
v -0.6 0.4 0.2
v -0.5 0.3 0.2
v -0.5 0.4 0.2
v 0.5 0.3 0.2
v 0.5 0.4 0.2
v 0.6 0.3 0.2
v 0.6 0.4 0.2
v -0.4 0 -0.1
v -0.4 0.1 -0.1
v -0.4 0.2 -0.1
v -0.4 0.6 -0.1
v -0.4 0.7 -0.1
v -0.3 0 -0.1
v -0.3 0.1 -0.1
v -0.3 0.2 -0.1
v -0.3 0.6 -0.1
v -0.3 0.7 -0.1
v -0.2 0 -0.1
v -0.2 0.1 -0.1
v -0.1 0 -0.1
v -0.1 0.1 -0.1
v 0.1 0 -0.1
v 0.1 0.1 -0.1
v 0.2 0 -0.1
v 0.2 0.1 -0.1
v 0.3 0 -0.1
v 0.3 0.1 -0.1
v 0.3 0.2 -0.1
v 0.3 0.6 -0.1
v 0.3 0.7 -0.1
v 0.4 0 -0.1
v 0.4 0.1 -0.1
v 0.4 0.2 -0.1
v 0.4 0.6 -0.1
v 0.4 0.7 -0.1
v -0.5 0.5 -0.2
v -0.5 0.6 -0.2
v -0.4 0.5 -0.2
v -0.4 0.6 -0.2
v -0.3 0 -0.2
v -0.3 0.1 -0.2
v -0.3 0.2 -0.2
v -0.3 0.6 -0.2
v -0.3 0.7 -0.2
v -0.2 0 -0.2
v -0.2 0.1 -0.2
v -0.2 0.2 -0.2
v -0.2 0.6 -0.2
v -0.2 0.7 -0.2
v 0.2 0 -0.2
v 0.2 0.1 -0.2
v 0.2 0.2 -0.2
v 0.2 0.6 -0.2
v 0.2 0.7 -0.2
v 0.3 0 -0.2
v 0.3 0.1 -0.2
v 0.3 0.2 -0.2
v 0.3 0.6 -0.2
v 0.3 0.7 -0.2
v 0.4 0.5 -0.2
v 0.4 0.6 -0.2
v 0.5 0.5 -0.2
v 0.5 0.6 -0.2
v -0.5 0.2 -0.3
v -0.5 0.3 -0.3
v -0.4 0.2 -0.3
v -0.4 0.3 -0.3
v -0.4 0.5 -0.3
v -0.4 0.6 -0.3
v -0.3 0.5 -0.3
v -0.3 0.6 -0.3
v -0.2 0.1 -0.3
v -0.2 0.2 -0.3
v -0.2 0.6 -0.3
v -0.2 0.7 -0.3
v 0.2 0.1 -0.3
v 0.2 0.2 -0.3
v 0.2 0.6 -0.3
v 0.2 0.7 -0.3
v 0.3 0.5 -0.3
v 0.3 0.6 -0.3
v 0.4 0.2 -0.3
v 0.4 0.3 -0.3
v 0.4 0.5 -0.3
v 0.4 0.6 -0.3
v 0.5 0.2 -0.3
v 0.5 0.3 -0.3
v -0.6 0.4 -0.4
v -0.6 0.5 -0.4
v -0.5 0.3 -0.4
v -0.5 0.4 -0.4
v -0.5 0.5 -0.4
v -0.4 0.2 -0.4
v -0.4 0.3 -0.4
v -0.3 0.3 -0.4
v -0.3 0.4 -0.4
v -0.3 0.5 -0.4
v -0.3 0.6 -0.4
v -0.1 0.2 -0.4
v -0.1 0.3 -0.4
v -5.96046e-08 0.2 -0.4
v -5.96046e-08 0.3 -0.4
v 0.3 0.3 -0.4
v 0.3 0.4 -0.4
v 0.3 0.5 -0.4
v 0.3 0.6 -0.4
v 0.4 0.2 -0.4
v 0.4 0.3 -0.4
v 0.5 0.3 -0.4
v 0.5 0.4 -0.4
v 0.5 0.5 -0.4
v 0.6 0.4 -0.4
v 0.6 0.5 -0.4
v -0.5 0.4 -0.5
v -0.5 0.5 -0.5
v -0.3 0.3 -0.5
v -0.3 0.4 -0.5
v -0.3 0.5 -0.5
v -0.1 0.3 -0.5
v -5.96046e-08 0.3 -0.5
v 0.3 0.3 -0.5
v 0.3 0.4 -0.5
v 0.3 0.5 -0.5
v 0.5 0.4 -0.5
v 0.5 0.5 -0.5
v -0.3 0.4 -0.6
v -0.3 0.5 -0.6
v 0.3 0.4 -0.6
v 0.3 0.5 -0.6
v -0.1 0.2 -0.7
v -0.1 0.3 -0.7
v 0.2 0.2 -0.7
v 0.2 0.3 -0.7
v -0.4 0 0.2
v -0.3 0 0.2
v -0.2 0 0.2
v -0.1 0 0.2
v 0.1 0 0.2
v 0.2 0 0.2
v 0.3 0 0.2
v 0.4 0 0.2
v -0.3 0 0.1
v -0.2 0 0.1
v 0.2 0 0.1
v 0.3 0 0.1
v -0.4 0 -0.1
v -0.3 0 -0.1
v -0.2 0 -0.1
v -0.1 0 -0.1
v 0.1 0 -0.1
v 0.2 0 -0.1
v 0.3 0 -0.1
v 0.4 0 -0.1
v -0.3 0 -0.2
v -0.2 0 -0.2
v 0.2 0 -0.2
v 0.3 0 -0.2
v -0.2 0.1 0.4
v 0.2 0.1 0.4
v -0.3 0.1 0.3
v -0.2 0.1 0.3
v 0.2 0.1 0.3
v 0.3 0.1 0.3
v -0.3 0.1 0.2
v -0.2 0.1 0.2
v -0.1 0.1 0.2
v 0.1 0.1 0.2
v 0.2 0.1 0.2
v 0.3 0.1 0.2
v -0.3 0.1 0.1
v -0.2 0.1 0.1
v 0.2 0.1 0.1
v 0.3 0.1 0.1
v -0.2 0.1 -0.1
v -0.1 0.1 -0.1
v 0.1 0.1 -0.1
v 0.2 0.1 -0.1
v -0.2 0.1 -0.2
v 0.2 0.1 -0.2
v -0.2 0.1 -0.3
v 0.2 0.1 -0.3
v -0.5 0.2 0.5
v -0.1 0.2 0.5
v 0.1 0.2 0.5
v 0.5 0.2 0.5
v -0.5 0.2 0.4
v -0.4 0.2 0.4
v -0.2 0.2 0.4
v -0.1 0.2 0.4
v 0.1 0.2 0.4
v 0.2 0.2 0.4
v 0.4 0.2 0.4
v 0.5 0.2 0.4
v -0.3 0.2 0.3
v -0.2 0.2 0.3
v 0.2 0.2 0.3
v 0.3 0.2 0.3
v -0.4 0.2 0.2
v -0.3 0.2 0.2
v 0.3 0.2 0.2
v 0.4 0.2 0.2
v -0.4 0.2 -0.1
v -0.3 0.2 -0.1
v 0.3 0.2 -0.1
v 0.4 0.2 -0.1
v -0.3 0.2 -0.2
v -0.2 0.2 -0.2
v 0.2 0.2 -0.2
v 0.3 0.2 -0.2
v -0.5 0.2 -0.3
v -0.4 0.2 -0.3
v -0.2 0.2 -0.3
v 0.2 0.2 -0.3
v 0.4 0.2 -0.3
v 0.5 0.2 -0.3
v -0.4 0.2 -0.4
v -0.1 0.2 -0.4
v -5.96046e-08 0.2 -0.4
v 0.4 0.2 -0.4
v -5.96046e-08 0.2 -0.6
v 0.2 0.2 -0.6
v -0.1 0.2 -0.7
v 0.2 0.2 -0.7
v -0.1 0.3 0.6
v 0.1 0.3 0.6
v -0.6 0.3 0.5
v -0.5 0.3 0.5
v -0.1 0.3 0.5
v 0.1 0.3 0.5
v 0.5 0.3 0.5
v 0.6 0.3 0.5
v -0.5 0.3 0.4
v 0.5 0.3 0.4
v -0.6 0.3 0.2
v -0.5 0.3 0.2
v 0.5 0.3 0.2
v 0.6 0.3 0.2
v -0.5 0.3 -0.3
v -0.4 0.3 -0.3
v 0.4 0.3 -0.3
v 0.5 0.3 -0.3
v -0.5 0.3 -0.4
v -0.4 0.3 -0.4
v -0.3 0.3 -0.4
v -0.1 0.3 -0.4
v -5.96046e-08 0.3 -0.4
v 0.3 0.3 -0.4
v 0.4 0.3 -0.4
v 0.5 0.3 -0.4
v -0.3 0.3 -0.5
v -0.1 0.3 -0.5
v -5.96046e-08 0.3 -0.5
v 0.3 0.3 -0.5
v -0.6 0.4 0.2
v -0.5 0.4 0.2
v 0.5 0.4 0.2
v 0.6 0.4 0.2
v -0.6 0.4 -0.4
v -0.5 0.4 -0.4
v -0.3 0.4 -0.4
v 0.3 0.4 -0.4
v 0.5 0.4 -0.4
v 0.6 0.4 -0.4
v -0.5 0.4 -0.5
v -0.3 0.4 -0.5
v 0.3 0.4 -0.5
v 0.5 0.4 -0.5
v -0.3 0.4 -0.6
v 0.3 0.4 -0.6
v -0.1 0.3 -0.5
v -5.96046e-08 0.3 -0.5
v -5.96046e-08 0.3 -0.6
v 0.2 0.3 -0.6
v -0.1 0.3 -0.7
v 0.2 0.3 -0.7
v -0.1 0.4 0.6
v 0.1 0.4 0.6
v -0.1 0.4 0.5
v 0.1 0.4 0.5
v -0.6 0.5 0.5
v -0.5 0.5 0.5
v 0.5 0.5 0.5
v 0.6 0.5 0.5
v -0.6 0.5 0.4
v -0.5 0.5 0.4
v 0.5 0.5 0.4
v 0.6 0.5 0.4
v -0.6 0.5 0.3
v -0.5 0.5 0.3
v 0.5 0.5 0.3
v 0.6 0.5 0.3
v -0.5 0.5 0.2
v 0.5 0.5 0.2
v -0.5 0.5 -0.2
v -0.4 0.5 -0.2
v 0.4 0.5 -0.2
v 0.5 0.5 -0.2
v -0.4 0.5 -0.3
v -0.3 0.5 -0.3
v 0.3 0.5 -0.3
v 0.4 0.5 -0.3
v -0.6 0.5 -0.4
v -0.5 0.5 -0.4
v -0.3 0.5 -0.4
v 0.3 0.5 -0.4
v 0.5 0.5 -0.4
v 0.6 0.5 -0.4
v -0.5 0.5 -0.5
v -0.3 0.5 -0.5
v 0.3 0.5 -0.5
v 0.5 0.5 -0.5
v -0.3 0.5 -0.6
v 0.3 0.5 -0.6
v -0.5 0.6 0.5
v 0.5 0.6 0.5
v -0.6 0.6 0.4
v -0.5 0.6 0.4
v -0.2 0.6 0.4
v 0.2 0.6 0.4
v 0.5 0.6 0.4
v 0.6 0.6 0.4
v -0.6 0.6 0.3
v -0.5 0.6 0.3
v -0.3 0.6 0.3
v -0.2 0.6 0.3
v 0.2 0.6 0.3
v 0.3 0.6 0.3
v 0.5 0.6 0.3
v 0.6 0.6 0.3
v -0.5 0.6 0.2
v -0.4 0.6 0.2
v -0.3 0.6 0.2
v 0.3 0.6 0.2
v 0.4 0.6 0.2
v 0.5 0.6 0.2
v -0.4 0.6 -0.1
v -0.3 0.6 -0.1
v 0.3 0.6 -0.1
v 0.4 0.6 -0.1
v -0.5 0.6 -0.2
v -0.4 0.6 -0.2
v -0.3 0.6 -0.2
v -0.2 0.6 -0.2
v 0.2 0.6 -0.2
v 0.3 0.6 -0.2
v 0.4 0.6 -0.2
v 0.5 0.6 -0.2
v -0.4 0.6 -0.3
v -0.3 0.6 -0.3
v -0.2 0.6 -0.3
v 0.2 0.6 -0.3
v 0.3 0.6 -0.3
v 0.4 0.6 -0.3
v -0.3 0.6 -0.4
v 0.3 0.6 -0.4
v -0.2 0.7 0.4
v 0.2 0.7 0.4
v -0.3 0.7 0.3
v -0.2 0.7 0.3
v 0.2 0.7 0.3
v 0.3 0.7 0.3
v -0.4 0.7 0.2
v -0.3 0.7 0.2
v 0.3 0.7 0.2
v 0.4 0.7 0.2
v -0.4 0.7 -0.1
v -0.3 0.7 -0.1
v 0.3 0.7 -0.1
v 0.4 0.7 -0.1
v -0.3 0.7 -0.2
v -0.2 0.7 -0.2
v 0.2 0.7 -0.2
v 0.3 0.7 -0.2
v -0.2 0.7 -0.3
v 0.2 0.7 -0.3

# faces
f 3/2/1 2/2/1 1/2/1
f 5/2/1 3/2/1 1/2/1
f 5/2/1 4/2/1 3/2/1
f 6/2/1 4/2/1 5/2/1
f 7/2/1 4/2/1 6/2/1
f 8/2/1 4/2/1 7/2/1
f 9/2/1 7/2/1 6/2/1
f 10/2/1 7/2/1 9/2/1
f 14/2/1 12/2/1 11/2/1
f 15/1/1 13/1/1 12/1/1
f 15/2/1 12/2/1 14/2/1
f 16/1/1 13/1/1 15/1/1
f 17/1/1 13/1/1 16/1/1
f 19/1/1 18/1/1 17/1/1
f 19/1/1 17/1/1 16/1/1
f 20/1/1 18/1/1 19/1/1
f 27/2/1 21/2/1 20/2/1
f 28/2/1 21/2/1 27/2/1
f 29/2/1 23/2/1 22/2/1
f 30/2/1 23/2/1 29/2/1
f 31/2/1 25/2/1 24/2/1
f 32/1/1 26/1/1 25/1/1
f 32/2/1 25/2/1 31/2/1
f 33/1/1 26/1/1 32/1/1
f 36/2/1 35/2/1 34/2/1
f 37/2/1 35/2/1 36/2/1
f 38/1/1 37/1/1 36/1/1
f 39/1/1 37/1/1 38/1/1
f 42/1/1 41/1/1 40/1/1
f 43/1/1 41/1/1 42/1/1
f 48/1/1 45/1/1 44/1/1
f 49/1/1 45/1/1 48/1/1
f 50/1/1 47/1/1 46/1/1
f 51/1/1 47/1/1 50/1/1
f 56/2/1 53/2/1 52/2/1
f 57/2/1 53/2/1 56/2/1
f 58/2/1 55/2/1 54/2/1
f 59/2/1 55/2/1 58/2/1
f 60/1/1 57/1/1 56/1/1
f 61/1/1 57/1/1 60/1/1
f 64/1/1 63/1/1 62/1/1
f 65/1/1 63/1/1 64/1/1
f 69/2/1 66/2/1 65/2/1
f 70/2/1 66/2/1 69/2/1
f 75/1/1 68/1/1 67/1/1
f 76/1/1 68/1/1 75/1/1
f 77/1/1 72/1/1 71/1/1
f 78/1/1 72/1/1 77/1/1
f 79/1/1 74/1/1 73/1/1
f 80/1/1 74/1/1 79/1/1
f 85/2/1 82/2/1 81/2/1
f 86/2/1 82/2/1 85/2/1
f 89/1/1 84/1/1 83/1/1
f 90/1/1 84/1/1 89/1/1
f 91/1/1 88/1/1 87/1/1
f 92/1/1 88/1/1 91/1/1
f 97/1/1 94/1/1 93/1/1
f 98/1/1 94/1/1 97/1/1
f 99/1/1 96/1/1 95/1/1
f 100/1/1 96/1/1 99/1/1
f 105/4/1 102/4/1 101/4/1
f 106/4/1 102/4/1 105/4/1
f 107/4/1 102/4/1 106/4/1
f 108/2/1 104/2/1 103/2/1
f 109/2/1 104/2/1 108/2/1
f 112/2/1 111/2/1 110/2/1
f 113/2/1 111/2/1 112/2/1
f 116/2/1 115/2/1 114/2/1
f 117/2/1 115/2/1 116/2/1
f 120/2/1 119/2/1 118/2/1
f 121/2/1 119/2/1 120/2/1
f 122/2/2 123/2/2 124/2/2
f 124/2/2 123/2/2 125/2/2
f 126/2/2 127/2/2 128/2/2
f 128/2/2 127/2/2 129/2/2
f 130/2/2 131/2/2 132/2/2
f 132/2/2 131/2/2 133/2/2
f 134/4/2 135/4/2 136/4/2
f 136/4/2 135/4/2 137/4/2
f 137/4/2 135/4/2 138/4/2
f 139/2/2 140/2/2 141/2/2
f 141/2/2 140/2/2 142/2/2
f 143/2/2 144/2/2 147/2/2
f 147/2/2 144/2/2 148/2/2
f 145/1/2 146/1/2 151/1/2
f 151/1/2 146/1/2 152/1/2
f 149/1/2 150/1/2 153/1/2
f 153/1/2 150/1/2 154/1/2
f 155/4/2 156/4/2 157/4/2
f 157/4/2 156/4/2 158/4/2
f 159/1/2 160/1/2 163/1/2
f 163/1/2 160/1/2 164/1/2
f 161/1/2 162/1/2 165/1/2
f 165/1/2 162/1/2 166/1/2
f 167/2/2 168/2/2 171/2/2
f 171/2/2 168/2/2 172/2/2
f 169/2/2 170/2/2 173/2/2
f 173/2/2 170/2/2 174/2/2
f 171/1/2 172/1/2 175/1/2
f 175/1/2 172/1/2 176/1/2
f 177/1/2 178/1/2 179/1/2
f 179/1/2 178/1/2 180/1/2
f 180/2/2 181/2/2 184/2/2
f 184/2/2 181/2/2 185/2/2
f 182/1/2 183/1/2 190/1/2
f 190/1/2 183/1/2 191/1/2
f 186/1/2 187/1/2 192/1/2
f 192/1/2 187/1/2 193/1/2
f 188/1/2 189/1/2 194/1/2
f 194/1/2 189/1/2 195/1/2
f 196/2/2 197/2/2 198/2/2
f 198/2/2 197/2/2 199/2/2
f 198/1/2 199/1/2 200/1/2
f 200/1/2 199/1/2 201/1/2
f 202/1/2 203/1/2 204/1/2
f 204/1/2 203/1/2 205/1/2
f 206/1/2 207/1/2 210/1/2
f 210/1/2 207/1/2 211/1/2
f 208/1/2 209/1/2 212/1/2
f 212/1/2 209/1/2 213/1/2
f 214/2/2 215/2/2 217/2/2
f 215/1/2 216/1/2 218/1/2
f 217/2/2 215/2/2 218/2/2
f 218/1/2 216/1/2 219/1/2
f 219/1/2 216/1/2 220/1/2
f 220/1/2 221/1/2 222/1/2
f 219/1/2 220/1/2 222/1/2
f 222/1/2 221/1/2 223/1/2
f 223/2/2 224/2/2 230/2/2
f 230/2/2 224/2/2 231/2/2
f 225/2/2 226/2/2 232/2/2
f 232/2/2 226/2/2 233/2/2
f 227/2/2 228/2/2 234/2/2
f 228/1/2 229/1/2 235/1/2
f 234/2/2 228/2/2 235/2/2
f 235/1/2 229/1/2 236/1/2
f 237/2/2 238/2/2 239/2/2
f 237/2/2 239/2/2 241/2/2
f 239/2/2 240/2/2 241/2/2
f 241/2/2 240/2/2 242/2/2
f 242/2/2 240/2/2 243/2/2
f 243/2/2 240/2/2 244/2/2
f 242/2/2 243/2/2 245/2/2
f 245/2/2 243/2/2 246/2/2
f 249/2/3 248/2/3 247/2/3
f 250/2/3 248/2/3 249/2/3
f 254/2/3 252/2/3 251/2/3
f 255/2/3 252/2/3 254/2/3
f 256/2/3 252/2/3 255/2/3
f 258/2/3 254/2/3 253/2/3
f 258/2/3 255/2/3 254/2/3
f 259/4/3 256/4/3 255/4/3
f 259/2/3 255/2/3 258/2/3
f 260/4/3 259/4/3 258/4/3
f 260/4/3 256/4/3 259/4/3
f 261/2/3 257/2/3 256/2/3
f 261/4/3 256/4/3 260/4/3
f 262/2/3 258/2/3 253/2/3
f 263/4/3 260/4/3 258/4/3
f 263/2/3 258/2/3 262/2/3
f 264/3/3 261/3/3 260/3/3
f 264/4/3 260/4/3 263/4/3
f 265/2/3 257/2/3 261/2/3
f 265/3/3 261/3/3 264/3/3
f 266/1/3 263/1/3 262/1/3
f 267/1/3 263/1/3 266/1/3
f 268/4/3 265/4/3 264/4/3
f 269/2/3 257/2/3 265/2/3
f 269/4/3 265/4/3 268/4/3
f 270/4/3 268/4/3 267/4/3
f 270/3/3 269/3/3 268/3/3
f 271/2/3 257/2/3 269/2/3
f 271/3/3 269/3/3 270/3/3
f 272/4/3 270/4/3 267/4/3
f 272/2/3 267/2/3 266/2/3
f 272/4/3 271/4/3 270/4/3
f 273/4/3 271/4/3 272/4/3
f 274/2/3 272/2/3 266/2/3
f 274/2/3 273/2/3 272/2/3
f 275/2/3 273/2/3 274/2/3
f 276/4/3 271/4/3 273/4/3
f 276/2/3 273/2/3 275/2/3
f 277/2/3 257/2/3 271/2/3
f 277/4/3 271/4/3 276/4/3
f 278/2/3 257/2/3 277/2/3
f 279/2/3 276/2/3 275/2/3
f 279/2/3 277/2/3 276/2/3
f 280/2/3 277/2/3 279/2/3
f 283/2/3 282/2/3 281/2/3
f 284/2/3 282/2/3 283/2/3
f 289/1/3 286/1/3 285/1/3
f 290/1/3 289/1/3 285/1/3
f 291/1/3 290/1/3 285/1/3
f 292/1/3 290/1/3 291/1/3
f 293/1/3 288/1/3 287/1/3
f 294/1/3 288/1/3 293/1/3
f 297/2/3 296/2/3 295/2/3
f 298/2/3 296/2/3 297/2/3
f 303/2/3 300/2/3 299/2/3
f 304/2/3 300/2/3 303/2/3
f 305/1/3 302/1/3 301/1/3
f 306/1/3 302/1/3 305/1/3
f 311/2/3 308/2/3 307/2/3
f 312/2/3 308/2/3 311/2/3
f 313/1/3 310/1/3 309/1/3
f 314/1/3 310/1/3 313/1/3
f 320/2/3 316/2/3 315/2/3
f 321/1/3 317/1/3 316/1/3
f 321/2/3 316/2/3 320/2/3
f 322/1/3 317/1/3 321/1/3
f 323/1/3 319/1/3 318/1/3
f 324/1/3 319/1/3 323/1/3
f 327/2/3 326/2/3 325/2/3
f 328/2/3 326/2/3 327/2/3
f 331/2/3 330/2/3 329/2/3
f 332/2/3 330/2/3 331/2/3
f 338/2/3 334/2/3 333/2/3
f 339/1/3 335/1/3 334/1/3
f 339/2/3 334/2/3 338/2/3
f 340/1/3 335/1/3 339/1/3
f 341/1/3 337/1/3 336/1/3
f 342/1/3 337/1/3 341/1/3
f 345/2/3 344/2/3 343/2/3
f 346/2/3 344/2/3 345/2/3
f 349/2/3 348/2/3 347/2/3
f 350/2/3 348/2/3 349/2/3
f 353/4/3 352/4/3 351/4/3
f 354/4/3 352/4/3 353/4/3
f 355/2/4 356/2/4 357/2/4
f 357/2/4 356/2/4 358/2/4
f 359/2/4 360/2/4 361/2/4
f 361/2/4 360/2/4 362/2/4
f 363/2/4 364/2/4 365/2/4
f 365/2/4 364/2/4 366/2/4
f 367/2/4 368/2/4 369/2/4
f 369/2/4 368/2/4 370/2/4
f 371/2/4 372/2/4 376/2/4
f 372/1/4 373/1/4 377/1/4
f 376/2/4 372/2/4 377/2/4
f 377/1/4 373/1/4 378/1/4
f 374/1/4 375/1/4 379/1/4
f 379/1/4 375/1/4 380/1/4
f 381/2/4 382/2/4 383/2/4
f 383/2/4 382/2/4 384/2/4
f 385/2/4 386/2/4 387/2/4
f 387/2/4 386/2/4 388/2/4
f 389/2/4 390/2/4 394/2/4
f 390/1/4 391/1/4 395/1/4
f 394/2/4 390/2/4 395/2/4
f 395/1/4 391/1/4 396/1/4
f 392/1/4 393/1/4 397/1/4
f 397/1/4 393/1/4 398/1/4
f 399/1/4 400/1/4 401/1/4
f 401/1/4 400/1/4 402/1/4
f 403/2/4 404/2/4 408/2/4
f 404/1/4 405/1/4 409/1/4
f 408/2/4 404/2/4 409/2/4
f 409/1/4 405/1/4 410/1/4
f 406/1/4 407/1/4 411/1/4
f 411/1/4 407/1/4 412/1/4
f 413/2/4 414/2/4 418/2/4
f 414/1/4 415/1/4 419/1/4
f 418/2/4 414/2/4 419/2/4
f 419/1/4 415/1/4 420/1/4
f 416/1/4 417/1/4 421/1/4
f 421/1/4 417/1/4 422/1/4
f 423/1/4 424/1/4 425/1/4
f 425/1/4 424/1/4 426/1/4
f 427/1/4 428/1/4 429/1/4
f 429/1/4 428/1/4 430/1/4
f 431/1/4 432/1/4 433/1/4
f 433/1/4 432/1/4 434/1/4
f 435/1/4 436/1/4 439/1/4
f 439/1/4 436/1/4 440/1/4
f 437/1/4 438/1/4 441/1/4
f 441/1/4 438/1/4 442/1/4
f 443/1/4 444/1/4 447/1/4
f 447/1/4 444/1/4 448/1/4
f 445/1/4 446/1/4 449/1/4
f 449/1/4 446/1/4 450/1/4
f 451/2/4 452/2/4 454/2/4
f 454/2/4 452/2/4 455/2/4
f 453/1/4 454/1/4 457/1/4
f 457/1/4 454/1/4 458/1/4
f 456/1/4 457/1/4 458/1/4
f 458/1/4 454/1/4 459/1/4
f 456/1/4 458/1/4 462/1/4
f 462/1/4 458/1/4 463/1/4
f 464/1/4 465/1/4 466/1/4
f 460/1/4 461/1/4 468/1/4
f 468/1/4 461/1/4 469/1/4
f 466/1/4 467/1/4 470/1/4
f 464/1/4 466/1/4 470/1/4
f 470/1/4 467/1/4 471/1/4
f 471/1/4 467/1/4 472/1/4
f 472/1/4 467/1/4 473/1/4
f 473/2/4 474/2/4 475/2/4
f 475/2/4 474/2/4 476/2/4
f 477/2/4 478/2/4 480/2/4
f 480/2/4 478/2/4 481/2/4
f 479/1/4 480/1/4 482/1/4
f 482/1/4 480/1/4 483/1/4
f 483/1/4 480/1/4 484/1/4
f 484/1/4 480/1/4 485/1/4
f 485/2/4 486/2/4 487/2/4
f 487/2/4 486/2/4 488/2/4
f 489/2/4 490/2/4 491/2/4
f 491/2/4 490/2/4 492/2/4
f 493/4/4 494/4/4 495/4/4
f 495/4/4 494/4/4 496/4/4
f 505/2/5 498/2/5 497/2/5
f 506/2/5 500/2/5 499/2/5
f 507/2/5 502/2/5 501/2/5
f 508/2/5 504/2/5 503/2/5
f 509/2/5 505/2/5 497/2/5
f 509/2/5 506/2/5 505/2/5
f 510/2/5 506/2/5 509/2/5
f 511/2/5 500/2/5 506/2/5
f 511/2/5 506/2/5 510/2/5
f 512/2/5 500/2/5 511/2/5
f 513/2/5 507/2/5 501/2/5
f 513/2/5 508/2/5 507/2/5
f 514/2/5 508/2/5 513/2/5
f 515/2/5 504/2/5 508/2/5
f 515/2/5 508/2/5 514/2/5
f 516/2/5 504/2/5 515/2/5
f 517/2/5 511/2/5 510/2/5
f 518/2/5 511/2/5 517/2/5
f 519/2/5 515/2/5 514/2/5
f 520/2/5 515/2/5 519/2/5
f 524/1/5 522/1/5 521/1/5
f 525/1/5 522/1/5 524/1/5
f 527/2/5 524/2/5 523/2/5
f 528/1/5 525/1/5 524/1/5
f 528/2/5 524/2/5 527/2/5
f 529/1/5 525/1/5 528/1/5
f 530/1/5 525/1/5 529/1/5
f 531/2/5 526/2/5 525/2/5
f 531/1/5 525/1/5 530/1/5
f 532/2/5 526/2/5 531/2/5
f 533/2/5 528/2/5 527/2/5
f 534/2/5 528/2/5 533/2/5
f 535/2/5 532/2/5 531/2/5
f 536/2/5 532/2/5 535/2/5
f 538/1/5 530/1/5 529/1/5
f 539/1/5 530/1/5 538/1/5
f 541/1/5 538/1/5 537/1/5
f 541/1/5 540/1/5 539/1/5
f 541/1/5 539/1/5 538/1/5
f 542/1/5 540/1/5 541/1/5
f 543/1/5 542/1/5 541/1/5
f 544/1/5 542/1/5 543/1/5
f 549/2/5 546/2/5 545/2/5
f 550/2/5 546/2/5 549/2/5
f 551/2/5 546/2/5 550/2/5
f 552/1/5 547/1/5 546/1/5
f 552/2/5 546/2/5 551/2/5
f 553/2/5 548/2/5 547/2/5
f 553/1/5 547/1/5 552/1/5
f 554/2/5 548/2/5 553/2/5
f 555/2/5 548/2/5 554/2/5
f 556/2/5 548/2/5 555/2/5
f 557/2/5 551/2/5 550/2/5
f 558/2/5 551/2/5 557/2/5
f 559/2/5 555/2/5 554/2/5
f 560/2/5 555/2/5 559/2/5
f 561/1/5 550/1/5 549/1/5
f 561/2/5 557/2/5 550/2/5
f 562/2/5 557/2/5 561/2/5
f 563/2/5 555/2/5 560/2/5
f 564/1/5 556/1/5 555/1/5
f 564/2/5 555/2/5 563/2/5
f 565/1/5 561/1/5 549/1/5
f 568/1/5 556/1/5 564/1/5
f 569/2/5 566/2/5 565/2/5
f 572/2/5 568/2/5 567/2/5
f 573/1/5 565/1/5 549/1/5
f 574/2/5 570/2/5 569/2/5
f 574/1/5 565/1/5 573/1/5
f 574/2/5 569/2/5 565/2/5
f 575/2/5 570/2/5 574/2/5
f 576/2/5 572/2/5 571/2/5
f 577/1/5 556/1/5 568/1/5
f 577/2/5 568/2/5 572/2/5
f 577/2/5 572/2/5 576/2/5
f 578/1/5 556/1/5 577/1/5
f 579/1/5 575/1/5 574/1/5
f 579/1/5 576/1/5 575/1/5
f 579/1/5 577/1/5 576/1/5
f 580/1/5 577/1/5 579/1/5
f 581/1/5 577/1/5 580/1/5
f 582/1/5 577/1/5 581/1/5
f 583/4/5 581/4/5 580/4/5
f 585/4/5 583/4/5 580/4/5
f 585/4/5 584/4/5 583/4/5
f 586/4/5 584/4/5 585/4/5
f 591/2/5 588/2/5 587/2/5
f 592/2/5 588/2/5 591/2/5
f 595/2/5 590/2/5 589/2/5
f 596/2/5 594/2/5 593/2/5
f 597/2/5 595/2/5 589/2/5
f 598/2/5 595/2/5 597/2/5
f 599/2/5 594/2/5 596/2/5
f 600/2/5 594/2/5 599/2/5
f 605/1/5 602/1/5 601/1/5
f 606/1/5 602/1/5 605/1/5
f 611/1/5 604/1/5 603/1/5
f 612/1/5 604/1/5 611/1/5
f 613/1/5 608/1/5 607/1/5
f 614/1/5 608/1/5 613/1/5
f 615/1/5 610/1/5 609/1/5
f 616/1/5 610/1/5 615/1/5
f 621/2/5 618/2/5 617/2/5
f 622/2/5 618/2/5 621/2/5
f 625/2/5 620/2/5 619/2/5
f 626/2/5 620/2/5 625/2/5
f 627/2/5 623/2/5 622/2/5
f 628/2/5 623/2/5 627/2/5
f 629/2/5 625/2/5 624/2/5
f 630/2/5 625/2/5 629/2/5
f 631/2/5 629/2/5 628/2/5
f 632/2/5 629/2/5 631/2/5
f 633/4/6 634/4/6 635/4/6
f 633/4/6 635/4/6 637/4/6
f 635/4/6 636/4/6 637/4/6
f 637/4/6 636/4/6 638/4/6
f 639/2/6 640/2/6 641/2/6
f 641/2/6 640/2/6 642/2/6
f 643/2/6 644/2/6 647/2/6
f 647/2/6 644/2/6 648/2/6
f 645/2/6 646/2/6 649/2/6
f 649/2/6 646/2/6 650/2/6
f 651/2/6 652/2/6 655/2/6
f 653/2/6 654/2/6 656/2/6
f 651/2/6 655/2/6 657/2/6
f 656/2/6 654/2/6 660/2/6
f 657/1/6 658/1/6 661/1/6
f 659/1/6 660/1/6 664/1/6
f 651/2/6 657/2/6 665/2/6
f 661/1/6 662/1/6 666/1/6
f 665/2/6 657/2/6 666/2/6
f 657/1/6 661/1/6 666/1/6
f 666/1/6 662/1/6 667/1/6
f 663/1/6 664/1/6 668/1/6
f 660/2/6 654/2/6 669/2/6
f 664/1/6 660/1/6 669/1/6
f 668/1/6 664/1/6 669/1/6
f 669/2/6 654/2/6 670/2/6
f 666/2/6 667/2/6 671/2/6
f 667/1/6 668/1/6 672/1/6
f 671/2/6 667/2/6 672/2/6
f 668/2/6 669/2/6 673/2/6
f 672/1/6 668/1/6 673/1/6
f 673/2/6 669/2/6 674/2/6
f 672/2/6 673/2/6 675/2/6
f 675/2/6 673/2/6 676/2/6
f 677/2/6 678/2/6 680/2/6
f 680/2/6 678/2/6 681/2/6
f 681/2/6 678/2/6 682/2/6
f 682/2/6 678/2/6 683/2/6
f 679/2/6 680/2/6 685/2/6
f 680/2/6 681/2/6 685/2/6
f 685/2/6 681/2/6 686/2/6
f 686/2/6 681/2/6 687/2/6
f 687/2/6 681/2/6 688/2/6
f 683/2/6 684/2/6 689/2/6
f 682/2/6 683/2/6 689/2/6
f 689/2/6 684/2/6 690/2/6
f 690/2/6 684/2/6 691/2/6
f 691/2/6 684/2/6 692/2/6
f 686/2/6 687/2/6 693/2/6
f 693/2/6 687/2/6 694/2/6
f 694/2/6 687/2/6 695/2/6
f 690/2/6 691/2/6 696/2/6
f 696/2/6 691/2/6 697/2/6
f 697/2/6 691/2/6 698/2/6
f 693/1/6 694/1/6 699/1/6
f 697/1/6 698/1/6 702/1/6
f 699/1/6 700/1/6 703/1/6
f 693/1/6 699/1/6 703/1/6
f 703/1/6 700/1/6 704/1/6
f 704/1/6 700/1/6 705/1/6
f 701/1/6 702/1/6 708/1/6
f 702/1/6 698/1/6 709/1/6
f 708/1/6 702/1/6 709/1/6
f 709/1/6 698/1/6 710/1/6
f 705/1/6 706/1/6 711/1/6
f 704/1/6 705/1/6 711/1/6
f 711/1/6 706/1/6 712/1/6
f 712/1/6 706/1/6 713/1/6
f 707/1/6 708/1/6 714/1/6
f 708/1/6 709/1/6 714/1/6
f 714/1/6 709/1/6 715/1/6
f 715/1/6 709/1/6 716/1/6
f 712/1/6 713/1/6 717/1/6
f 714/1/6 715/1/6 717/1/6
f 713/1/6 714/1/6 717/1/6
f 717/1/6 715/1/6 718/1/6
f 719/1/6 720/1/6 722/1/6
f 722/1/6 720/1/6 723/1/6
f 721/1/6 722/1/6 726/1/6
f 723/1/6 724/1/6 726/1/6
f 722/1/6 723/1/6 726/1/6
f 726/1/6 724/1/6 727/1/6
f 725/1/6 726/1/6 729/1/6
f 727/1/6 728/1/6 729/1/6
f 726/1/6 727/1/6 729/1/6
f 729/1/6 728/1/6 730/1/6
f 730/1/6 728/1/6 731/1/6
f 731/1/6 728/1/6 732/1/6
f 730/1/6 731/1/6 733/1/6
f 733/1/6 731/1/6 734/1/6
f 734/1/6 731/1/6 735/1/6
f 735/1/6 731/1/6 736/1/6
f 734/1/6 735/1/6 737/1/6
f 737/1/6 735/1/6 738/1/6
