# MagicaVoxel @ Ephtracy

# group
o PookaGhost1

# material
mtllib PookaGhost2Quarter.mtl
usemtl palette

# normals
vn -1 0 0
vn 1 0 0
vn 0 -1 0
vn 0 1 0
vn 0 0 -1
vn 0 0 1

# texcoords
vt 0.185547 0.5
vt 0.876953 0.5
vt 0.962891 0.5

# verts
v -0.4 0.3 0.3
v -0.4 0.8 0.3
v -0.4 0.3 0.4
v -0.4 0.8 0.4
v -0.3 0.2 0.2
v -0.3 0.3 0.2
v -0.3 0.5 0.2
v -0.3 0.6 0.2
v -0.3 0.8 0.2
v -0.3 0.9 0.2
v -0.3 0.3 0.3
v -0.3 0.5 0.3
v -0.3 0.6 0.3
v -0.3 0.8 0.3
v -0.3 0.2 0.4
v -0.3 0.3 0.4
v -0.3 0.8 0.4
v -0.3 0.9 0.4
v -0.2 0.2 0.1
v -0.2 0.3 0.1
v -0.2 0.6 0.1
v -0.2 0.7 0.1
v -0.2 0.9 0.1
v -0.2 1 0.1
v -0.2 0.2 0.2
v -0.2 0.3 0.2
v -0.2 0.5 0.2
v -0.2 0.6 0.2
v -0.2 0.7 0.2
v -0.2 0.8 0.2
v -0.2 0.9 0.2
v -0.2 1 0.2
v -0.1 0.4 0
v -0.1 0.5 0
v -0.1 0.9 0
v -0.1 1 0
v -0.1 0.4 0.1
v -0.1 0.5 0.1
v -0.1 0.6 0.1
v -0.1 0.7 0.1
v -0.1 0.9 0.1
v -0.1 1 0.1
v 0 0.4 -0.1
v 0 0.5 -0.1
v 0 0.9 -0.1
v 0 1 -0.1
v 0 0.3 0
v 0 0.4 0
v 0 0.5 0
v 0 0.9 0
v 0 1 0
v 0 0.3 0.1
v 0 0.4 0.1
v 0.1 0.2 -0.2
v 0.1 0.3 -0.2
v 0.1 0.6 -0.2
v 0.1 0.7 -0.2
v 0.1 0.9 -0.2
v 0.1 1 -0.2
v 0.1 0.3 -0.1
v 0.1 0.4 -0.1
v 0.1 0.5 -0.1
v 0.1 0.6 -0.1
v 0.1 0.7 -0.1
v 0.1 0.9 -0.1
v 0.1 1 -0.1
v 0.1 0.2 0
v 0.1 0.3 0
v 0.1 0.4 0
v 0.2 0.2 -0.3
v 0.2 0.3 -0.3
v 0.2 0.5 -0.3
v 0.2 0.6 -0.3
v 0.2 0.8 -0.3
v 0.2 0.9 -0.3
v 0.2 0.2 -0.2
v 0.2 0.3 -0.2
v 0.2 0.5 -0.2
v 0.2 0.6 -0.2
v 0.2 0.7 -0.2
v 0.2 0.8 -0.2
v 0.2 0.9 -0.2
v 0.3 0.3 -0.4
v 0.3 0.8 -0.4
v 0.3 0.3 -0.3
v 0.3 0.5 -0.3
v 0.3 0.6 -0.3
v 0.3 0.8 -0.3
v -0.2 0.2 0.3
v -0.2 0.3 0.3
v -0.2 0.5 0.3
v -0.2 0.6 0.3
v -0.2 0.8 0.3
v -0.2 0.9 0.3
v -0.2 0.2 0.4
v -0.2 0.3 0.4
v -0.2 0.8 0.4
v -0.2 0.9 0.4
v -0.1 0.2 0.2
v -0.1 0.3 0.2
v -0.1 0.4 0.2
v -0.1 0.5 0.2
v -0.1 0.6 0.2
v -0.1 0.7 0.2
v -0.1 0.8 0.2
v -0.1 0.9 0.2
v -0.1 0.2 0.3
v -0.1 0.3 0.3
v -0.1 0.5 0.3
v -0.1 0.6 0.3
v -0.1 0.8 0.3
v -0.1 0.9 0.3
v 0 0.2 0.1
v 0 0.3 0.1
v 0 0.4 0.1
v 0 0.6 0.1
v 0 0.7 0.1
v 0 0.9 0.1
v 0 1 0.1
v 0 0.2 0.2
v 0 0.4 0.2
v 0 0.6 0.2
v 0 0.7 0.2
v 0 0.9 0.2
v 0 1 0.2
v 0.1 0.3 0
v 0.1 0.4 0
v 0.1 0.6 0
v 0.1 0.7 0
v 0.1 0.9 0
v 0.1 1 0
v 0.1 0.3 0.1
v 0.1 0.6 0.1
v 0.1 0.9 0.1
v 0.1 1 0.1
v 0.2 0.9 -0.2
v 0.2 1 -0.2
v 0.2 0.2 -0.1
v 0.2 0.3 -0.1
v 0.2 0.4 -0.1
v 0.2 0.5 -0.1
v 0.2 0.6 -0.1
v 0.2 0.7 -0.1
v 0.2 0.8 -0.1
v 0.2 0.9 -0.1
v 0.2 0.2 0
v 0.2 0.4 0
v 0.2 0.6 0
v 0.2 0.7 0
v 0.2 0.9 0
v 0.2 1 0
v 0.3 0.2 -0.2
v 0.3 0.3 -0.2
v 0.3 0.5 -0.2
v 0.3 0.6 -0.2
v 0.3 0.8 -0.2
v 0.3 0.9 -0.2
v 0.3 0.2 -0.1
v 0.3 0.3 -0.1
v 0.3 0.5 -0.1
v 0.3 0.6 -0.1
v 0.3 0.8 -0.1
v 0.3 0.9 -0.1
v 0.4 0.3 -0.4
v 0.4 0.8 -0.4
v 0.4 0.2 -0.3
v 0.4 0.3 -0.3
v 0.4 0.8 -0.3
v 0.4 0.9 -0.3
v 0.4 0.2 -0.2
v 0.4 0.3 -0.2
v 0.4 0.8 -0.2
v 0.4 0.9 -0.2
v -0.3 0.2 0.2
v -0.3 0.2 0.4
v -0.2 0.2 0.1
v -0.2 0.2 0.2
v -0.2 0.2 0.3
v -0.2 0.2 0.4
v -0.1 0.2 0.2
v -0.1 0.2 0.3
v 0 0.2 0.1
v 0 0.2 0.2
v 0.1 0.2 -0.2
v 0.1 0.2 0
v 0.2 0.2 -0.3
v 0.2 0.2 -0.2
v 0.2 0.2 -0.1
v 0.2 0.2 0
v 0.3 0.2 -0.2
v 0.3 0.2 -0.1
v 0.4 0.2 -0.3
v 0.4 0.2 -0.2
v -0.4 0.3 0.3
v -0.4 0.3 0.4
v -0.3 0.3 0.3
v -0.3 0.3 0.4
v 0 0.3 0
v 0 0.3 0.1
v 0.1 0.3 0
v 0.1 0.3 0.1
v 0.3 0.3 -0.4
v 0.3 0.3 -0.3
v 0.4 0.3 -0.4
v 0.4 0.3 -0.3
v -0.1 0.4 0
v -0.1 0.4 0.1
v 0 0.4 -0.1
v 0 0.4 0
v 0 0.4 0.1
v 0.1 0.4 -0.1
v 0.1 0.4 0
v -0.4 0.8 0.3
v -0.4 0.8 0.4
v -0.3 0.8 0.3
v -0.3 0.8 0.4
v 0.3 0.8 -0.4
v 0.3 0.8 -0.3
v 0.4 0.8 -0.4
v 0.4 0.8 -0.3
v -0.3 0.9 0.2
v -0.3 0.9 0.4
v -0.2 0.9 0.2
v -0.2 0.9 0.3
v -0.2 0.9 0.4
v -0.1 0.9 0.2
v -0.1 0.9 0.3
v 0.2 0.9 -0.3
v 0.2 0.9 -0.2
v 0.2 0.9 -0.1
v 0.3 0.9 -0.2
v 0.3 0.9 -0.1
v 0.4 0.9 -0.3
v 0.4 0.9 -0.2
v -0.2 1 0.1
v -0.2 1 0.2
v -0.1 1 0
v -0.1 1 0.1
v 0 1 -0.1
v 0 1 0
v 0 1 0.1
v 0 1 0.2
v 0.1 1 -0.2
v 0.1 1 -0.1
v 0.1 1 0
v 0.1 1 0.1
v 0.2 1 -0.2
v 0.2 1 0
v 0.3 0.3 -0.4
v 0.4 0.3 -0.4
v 0.3 0.8 -0.4
v 0.4 0.8 -0.4
v 0.2 0.2 -0.3
v 0.4 0.2 -0.3
v 0.2 0.3 -0.3
v 0.3 0.3 -0.3
v 0.4 0.3 -0.3
v 0.2 0.5 -0.3
v 0.3 0.5 -0.3
v 0.2 0.6 -0.3
v 0.3 0.6 -0.3
v 0.2 0.8 -0.3
v 0.3 0.8 -0.3
v 0.4 0.8 -0.3
v 0.2 0.9 -0.3
v 0.4 0.9 -0.3
v 0.1 0.2 -0.2
v 0.2 0.2 -0.2
v 0.1 0.3 -0.2
v 0.2 0.3 -0.2
v 0.2 0.5 -0.2
v 0.1 0.6 -0.2
v 0.2 0.6 -0.2
v 0.1 0.7 -0.2
v 0.2 0.7 -0.2
v 0.2 0.8 -0.2
v 0.1 0.9 -0.2
v 0.2 0.9 -0.2
v 0.1 1 -0.2
v 0.2 1 -0.2
v 0 0.4 -0.1
v 0.1 0.4 -0.1
v 0 0.5 -0.1
v 0.1 0.5 -0.1
v 0.1 0.6 -0.1
v 0.1 0.7 -0.1
v 0 0.9 -0.1
v 0.1 0.9 -0.1
v 0 1 -0.1
v 0.1 1 -0.1
v 0 0.3 0
v 0.1 0.3 0
v -0.1 0.4 0
v 0 0.4 0
v 0.1 0.4 0
v -0.1 0.5 0
v 0 0.5 0
v -0.1 0.9 0
v 0 0.9 0
v -0.1 1 0
v 0 1 0
v -0.2 0.2 0.1
v 0 0.2 0.1
v -0.2 0.3 0.1
v -0.1 0.3 0.1
v 0 0.3 0.1
v -0.1 0.4 0.1
v 0 0.4 0.1
v -0.1 0.5 0.1
v -0.2 0.6 0.1
v -0.1 0.6 0.1
v -0.2 0.7 0.1
v -0.1 0.7 0.1
v -0.2 0.9 0.1
v -0.1 0.9 0.1
v -0.2 1 0.1
v -0.1 1 0.1
v -0.3 0.2 0.2
v -0.2 0.2 0.2
v -0.3 0.3 0.2
v -0.2 0.3 0.2
v -0.3 0.5 0.2
v -0.2 0.5 0.2
v -0.3 0.6 0.2
v -0.2 0.6 0.2
v -0.2 0.7 0.2
v -0.3 0.8 0.2
v -0.2 0.8 0.2
v -0.3 0.9 0.2
v -0.2 0.9 0.2
v -0.4 0.3 0.3
v -0.3 0.3 0.3
v -0.3 0.5 0.3
v -0.3 0.6 0.3
v -0.4 0.8 0.3
v -0.3 0.8 0.3
v 0.3 0.2 -0.2
v 0.4 0.2 -0.2
v 0.3 0.3 -0.2
v 0.4 0.3 -0.2
v 0.3 0.5 -0.2
v 0.3 0.6 -0.2
v 0.3 0.8 -0.2
v 0.4 0.8 -0.2
v 0.3 0.9 -0.2
v 0.4 0.9 -0.2
v 0.2 0.2 -0.1
v 0.3 0.2 -0.1
v 0.2 0.3 -0.1
v 0.3 0.3 -0.1
v 0.2 0.4 -0.1
v 0.2 0.5 -0.1
v 0.3 0.5 -0.1
v 0.2 0.6 -0.1
v 0.3 0.6 -0.1
v 0.2 0.7 -0.1
v 0.2 0.8 -0.1
v 0.3 0.8 -0.1
v 0.2 0.9 -0.1
v 0.3 0.9 -0.1
v 0.1 0.2 0
v 0.2 0.2 0
v 0.1 0.3 0
v 0.1 0.4 0
v 0.2 0.4 0
v 0.1 0.6 0
v 0.2 0.6 0
v 0.1 0.7 0
v 0.2 0.7 0
v 0.1 0.9 0
v 0.2 0.9 0
v 0.1 1 0
v 0.2 1 0
v 0 0.3 0.1
v 0.1 0.3 0.1
v 0 0.4 0.1
v 0 0.6 0.1
v 0.1 0.6 0.1
v 0 0.7 0.1
v 0 0.9 0.1
v 0.1 0.9 0.1
v 0 1 0.1
v 0.1 1 0.1
v -0.1 0.2 0.2
v 0 0.2 0.2
v -0.1 0.3 0.2
v -0.1 0.4 0.2
v 0 0.4 0.2
v -0.1 0.5 0.2
v -0.1 0.6 0.2
v 0 0.6 0.2
v -0.1 0.7 0.2
v 0 0.7 0.2
v -0.1 0.8 0.2
v -0.2 0.9 0.2
v -0.1 0.9 0.2
v 0 0.9 0.2
v -0.2 1 0.2
v 0 1 0.2
v -0.2 0.2 0.3
v -0.1 0.2 0.3
v -0.2 0.3 0.3
v -0.1 0.3 0.3
v -0.2 0.5 0.3
v -0.1 0.5 0.3
v -0.2 0.6 0.3
v -0.1 0.6 0.3
v -0.2 0.8 0.3
v -0.1 0.8 0.3
v -0.2 0.9 0.3
v -0.1 0.9 0.3
v -0.3 0.2 0.4
v -0.2 0.2 0.4
v -0.4 0.3 0.4
v -0.3 0.3 0.4
v -0.2 0.3 0.4
v -0.4 0.8 0.4
v -0.3 0.8 0.4
v -0.2 0.8 0.4
v -0.3 0.9 0.4
v -0.2 0.9 0.4

# faces
f 3/1/1 2/1/1 1/1/1
f 4/1/1 2/1/1 3/1/1
f 11/1/1 6/1/1 5/1/1
f 11/3/1 7/3/1 6/3/1
f 12/2/1 8/2/1 7/2/1
f 12/3/1 7/3/1 11/3/1
f 13/3/1 9/3/1 8/3/1
f 13/2/1 8/2/1 12/2/1
f 14/1/1 10/1/1 9/1/1
f 14/3/1 9/3/1 13/3/1
f 15/1/1 11/1/1 5/1/1
f 16/1/1 11/1/1 15/1/1
f 17/1/1 10/1/1 14/1/1
f 18/1/1 10/1/1 17/1/1
f 25/1/1 20/1/1 19/1/1
f 26/3/1 21/3/1 20/3/1
f 26/1/1 20/1/1 25/1/1
f 27/3/1 21/3/1 26/3/1
f 28/2/1 22/2/1 21/2/1
f 28/3/1 21/3/1 27/3/1
f 29/3/1 23/3/1 22/3/1
f 29/2/1 22/2/1 28/2/1
f 30/3/1 23/3/1 29/3/1
f 31/1/1 24/1/1 23/1/1
f 31/3/1 23/3/1 30/3/1
f 32/1/1 24/1/1 31/1/1
f 37/1/1 34/1/1 33/1/1
f 38/3/1 35/3/1 34/3/1
f 38/1/1 34/1/1 37/1/1
f 39/3/1 35/3/1 38/3/1
f 40/3/1 35/3/1 39/3/1
f 41/1/1 36/1/1 35/1/1
f 41/3/1 35/3/1 40/3/1
f 42/1/1 36/1/1 41/1/1
f 48/1/1 44/1/1 43/1/1
f 49/3/1 45/3/1 44/3/1
f 49/1/1 44/1/1 48/1/1
f 50/1/1 46/1/1 45/1/1
f 50/3/1 45/3/1 49/3/1
f 51/1/1 46/1/1 50/1/1
f 52/1/1 48/1/1 47/1/1
f 53/1/1 48/1/1 52/1/1
f 60/1/1 55/1/1 54/1/1
f 60/3/1 56/3/1 55/3/1
f 61/3/1 56/3/1 60/3/1
f 62/3/1 56/3/1 61/3/1
f 63/2/1 57/2/1 56/2/1
f 63/3/1 56/3/1 62/3/1
f 64/3/1 58/3/1 57/3/1
f 64/2/1 57/2/1 63/2/1
f 65/1/1 59/1/1 58/1/1
f 65/3/1 58/3/1 64/3/1
f 66/1/1 59/1/1 65/1/1
f 67/1/1 61/1/1 60/1/1
f 67/1/1 60/1/1 54/1/1
f 68/1/1 61/1/1 67/1/1
f 69/1/1 61/1/1 68/1/1
f 76/1/1 71/1/1 70/1/1
f 77/3/1 72/3/1 71/3/1
f 77/1/1 71/1/1 76/1/1
f 78/2/1 73/2/1 72/2/1
f 78/3/1 72/3/1 77/3/1
f 79/3/1 74/3/1 73/3/1
f 79/2/1 73/2/1 78/2/1
f 80/3/1 74/3/1 79/3/1
f 81/1/1 75/1/1 74/1/1
f 81/3/1 74/3/1 80/3/1
f 82/1/1 75/1/1 81/1/1
f 85/1/1 84/1/1 83/1/1
f 86/1/1 84/1/1 85/1/1
f 87/1/1 84/1/1 86/1/1
f 88/1/1 84/1/1 87/1/1
f 89/1/2 90/1/2 95/1/2
f 90/3/2 91/3/2 96/3/2
f 95/1/2 90/1/2 96/1/2
f 91/3/2 92/3/2 96/3/2
f 92/3/2 93/3/2 96/3/2
f 93/1/2 94/1/2 97/1/2
f 96/3/2 93/3/2 97/3/2
f 97/1/2 94/1/2 98/1/2
f 99/1/2 100/1/2 107/1/2
f 100/3/2 101/3/2 108/3/2
f 107/1/2 100/1/2 108/1/2
f 101/3/2 102/3/2 108/3/2
f 102/2/2 103/2/2 109/2/2
f 108/3/2 102/3/2 109/3/2
f 104/3/2 105/3/2 110/3/2
f 109/2/2 103/2/2 110/2/2
f 103/3/2 104/3/2 110/3/2
f 105/1/2 106/1/2 111/1/2
f 110/3/2 105/3/2 111/3/2
f 111/1/2 106/1/2 112/1/2
f 113/1/2 114/1/2 120/1/2
f 114/1/2 115/1/2 120/1/2
f 115/3/2 116/3/2 121/3/2
f 120/1/2 115/1/2 121/1/2
f 116/2/2 117/2/2 122/2/2
f 121/3/2 116/3/2 122/3/2
f 117/3/2 118/3/2 123/3/2
f 122/2/2 117/2/2 123/2/2
f 118/1/2 119/1/2 124/1/2
f 123/3/2 118/3/2 124/3/2
f 124/1/2 119/1/2 125/1/2
f 126/1/2 127/1/2 132/1/2
f 127/1/2 128/1/2 132/1/2
f 129/3/2 130/3/2 133/3/2
f 132/1/2 128/1/2 133/1/2
f 128/3/2 129/3/2 133/3/2
f 130/1/2 131/1/2 134/1/2
f 133/3/2 130/3/2 134/3/2
f 134/1/2 131/1/2 135/1/2
f 136/1/2 137/1/2 145/1/2
f 138/1/2 139/1/2 146/1/2
f 139/1/2 140/1/2 146/1/2
f 140/3/2 141/3/2 147/3/2
f 146/1/2 140/1/2 147/1/2
f 141/3/2 142/3/2 147/3/2
f 142/2/2 143/2/2 148/2/2
f 147/3/2 142/3/2 148/3/2
f 143/3/2 144/3/2 149/3/2
f 148/2/2 143/2/2 149/2/2
f 144/3/2 145/3/2 149/3/2
f 145/1/2 137/1/2 150/1/2
f 149/3/2 145/3/2 150/3/2
f 150/1/2 137/1/2 151/1/2
f 152/1/2 153/1/2 158/1/2
f 153/3/2 154/3/2 159/3/2
f 158/1/2 153/1/2 159/1/2
f 154/2/2 155/2/2 160/2/2
f 159/3/2 154/3/2 160/3/2
f 155/3/2 156/3/2 161/3/2
f 160/2/2 155/2/2 161/2/2
f 156/1/2 157/1/2 162/1/2
f 161/3/2 156/3/2 162/3/2
f 162/1/2 157/1/2 163/1/2
f 164/1/2 165/1/2 167/1/2
f 167/1/2 165/1/2 168/1/2
f 166/1/2 167/1/2 170/1/2
f 167/3/2 168/3/2 171/3/2
f 170/1/2 167/1/2 171/1/2
f 168/1/2 169/1/2 172/1/2
f 171/3/2 168/3/2 172/3/2
f 172/1/2 169/1/2 173/1/2
f 177/1/3 175/1/3 174/1/3
f 178/1/3 175/1/3 177/1/3
f 179/1/3 175/1/3 178/1/3
f 180/1/3 177/1/3 176/1/3
f 180/1/3 178/1/3 177/1/3
f 181/1/3 178/1/3 180/1/3
f 182/1/3 180/1/3 176/1/3
f 183/1/3 180/1/3 182/1/3
f 187/1/3 185/1/3 184/1/3
f 188/1/3 185/1/3 187/1/3
f 189/1/3 185/1/3 188/1/3
f 190/1/3 187/1/3 186/1/3
f 190/1/3 188/1/3 187/1/3
f 191/1/3 188/1/3 190/1/3
f 192/1/3 190/1/3 186/1/3
f 193/1/3 190/1/3 192/1/3
f 196/1/3 195/1/3 194/1/3
f 197/1/3 195/1/3 196/1/3
f 200/1/3 199/1/3 198/1/3
f 201/1/3 199/1/3 200/1/3
f 204/1/3 203/1/3 202/1/3
f 205/1/3 203/1/3 204/1/3
f 209/1/3 207/1/3 206/1/3
f 210/1/3 207/1/3 209/1/3
f 211/1/3 209/1/3 208/1/3
f 212/1/3 209/1/3 211/1/3
f 213/1/4 214/1/4 215/1/4
f 215/1/4 214/1/4 216/1/4
f 217/1/4 218/1/4 219/1/4
f 219/1/4 218/1/4 220/1/4
f 221/1/4 222/1/4 223/1/4
f 223/1/4 222/1/4 224/1/4
f 224/1/4 222/1/4 225/1/4
f 223/1/4 224/1/4 226/1/4
f 226/1/4 224/1/4 227/1/4
f 228/1/4 229/1/4 231/1/4
f 229/1/4 230/1/4 231/1/4
f 231/1/4 230/1/4 232/1/4
f 228/1/4 231/1/4 233/1/4
f 233/1/4 231/1/4 234/1/4
f 235/1/4 236/1/4 238/1/4
f 237/1/4 238/1/4 240/1/4
f 238/1/4 236/1/4 241/1/4
f 240/1/4 238/1/4 241/1/4
f 241/1/4 236/1/4 242/1/4
f 239/1/4 240/1/4 244/1/4
f 240/1/4 241/1/4 244/1/4
f 244/1/4 241/1/4 245/1/4
f 245/1/4 241/1/4 246/1/4
f 243/1/4 244/1/4 247/1/4
f 244/1/4 245/1/4 247/1/4
f 247/1/4 245/1/4 248/1/4
f 251/1/5 250/1/5 249/1/5
f 252/1/5 250/1/5 251/1/5
f 255/1/5 254/1/5 253/1/5
f 256/1/5 254/1/5 255/1/5
f 257/1/5 254/1/5 256/1/5
f 258/3/5 256/3/5 255/3/5
f 259/3/5 256/3/5 258/3/5
f 260/2/5 259/2/5 258/2/5
f 261/2/5 259/2/5 260/2/5
f 262/3/5 261/3/5 260/3/5
f 263/3/5 261/3/5 262/3/5
f 265/1/5 263/1/5 262/1/5
f 265/1/5 264/1/5 263/1/5
f 266/1/5 264/1/5 265/1/5
f 269/1/5 268/1/5 267/1/5
f 270/1/5 268/1/5 269/1/5
f 271/3/5 270/3/5 269/3/5
f 272/3/5 271/3/5 269/3/5
f 273/3/5 271/3/5 272/3/5
f 274/2/5 273/2/5 272/2/5
f 275/2/5 273/2/5 274/2/5
f 276/3/5 275/3/5 274/3/5
f 277/3/5 276/3/5 274/3/5
f 278/3/5 276/3/5 277/3/5
f 279/1/5 278/1/5 277/1/5
f 280/1/5 278/1/5 279/1/5
f 283/1/5 282/1/5 281/1/5
f 284/1/5 282/1/5 283/1/5
f 285/3/5 284/3/5 283/3/5
f 286/3/5 285/3/5 283/3/5
f 287/3/5 286/3/5 283/3/5
f 288/3/5 286/3/5 287/3/5
f 289/1/5 288/1/5 287/1/5
f 290/1/5 288/1/5 289/1/5
f 294/1/5 292/1/5 291/1/5
f 295/1/5 292/1/5 294/1/5
f 296/1/5 294/1/5 293/1/5
f 297/1/5 294/1/5 296/1/5
f 298/3/5 297/3/5 296/3/5
f 299/3/5 297/3/5 298/3/5
f 300/1/5 299/1/5 298/1/5
f 301/1/5 299/1/5 300/1/5
f 304/1/5 303/1/5 302/1/5
f 305/1/5 303/1/5 304/1/5
f 306/1/5 303/1/5 305/1/5
f 307/3/5 305/3/5 304/3/5
f 307/1/5 306/1/5 305/1/5
f 308/1/5 306/1/5 307/1/5
f 309/3/5 307/3/5 304/3/5
f 310/3/5 309/3/5 304/3/5
f 311/3/5 309/3/5 310/3/5
f 312/2/5 311/2/5 310/2/5
f 313/2/5 311/2/5 312/2/5
f 314/3/5 313/3/5 312/3/5
f 315/3/5 313/3/5 314/3/5
f 316/1/5 315/1/5 314/1/5
f 317/1/5 315/1/5 316/1/5
f 320/1/5 319/1/5 318/1/5
f 321/1/5 319/1/5 320/1/5
f 322/3/5 321/3/5 320/3/5
f 323/3/5 321/3/5 322/3/5
f 324/2/5 323/2/5 322/2/5
f 325/2/5 323/2/5 324/2/5
f 326/3/5 325/3/5 324/3/5
f 327/3/5 326/3/5 324/3/5
f 328/3/5 326/3/5 327/3/5
f 329/1/5 328/1/5 327/1/5
f 330/1/5 328/1/5 329/1/5
f 333/1/5 332/1/5 331/1/5
f 334/1/5 333/1/5 331/1/5
f 335/1/5 334/1/5 331/1/5
f 336/1/5 334/1/5 335/1/5
f 337/1/6 338/1/6 339/1/6
f 339/1/6 338/1/6 340/1/6
f 339/3/6 340/3/6 341/3/6
f 341/3/6 340/3/6 342/3/6
f 342/3/6 340/3/6 343/3/6
f 343/3/6 340/3/6 344/3/6
f 343/1/6 344/1/6 345/1/6
f 345/1/6 344/1/6 346/1/6
f 347/1/6 348/1/6 349/1/6
f 349/1/6 348/1/6 350/1/6
f 349/3/6 350/3/6 351/3/6
f 351/3/6 350/3/6 352/3/6
f 352/3/6 350/3/6 353/3/6
f 352/2/6 353/2/6 354/2/6
f 354/2/6 353/2/6 355/2/6
f 354/3/6 355/3/6 356/3/6
f 356/3/6 355/3/6 357/3/6
f 357/3/6 355/3/6 358/3/6
f 357/1/6 358/1/6 359/1/6
f 359/1/6 358/1/6 360/1/6
f 361/1/6 362/1/6 363/1/6
f 363/1/6 362/1/6 364/1/6
f 364/1/6 362/1/6 365/1/6
f 364/3/6 365/3/6 366/3/6
f 366/3/6 365/3/6 367/3/6
f 366/2/6 367/2/6 368/2/6
f 368/2/6 367/2/6 369/2/6
f 368/3/6 369/3/6 370/3/6
f 370/3/6 369/3/6 371/3/6
f 370/1/6 371/1/6 372/1/6
f 372/1/6 371/1/6 373/1/6
f 374/1/6 375/1/6 376/1/6
f 376/1/6 375/1/6 377/1/6
f 377/1/6 375/1/6 378/1/6
f 377/3/6 378/3/6 379/3/6
f 379/3/6 378/3/6 380/3/6
f 380/3/6 378/3/6 381/3/6
f 380/1/6 381/1/6 382/1/6
f 382/1/6 381/1/6 383/1/6
f 384/1/6 385/1/6 386/1/6
f 386/1/6 385/1/6 387/1/6
f 387/1/6 385/1/6 388/1/6
f 387/3/6 388/3/6 389/3/6
f 389/3/6 388/3/6 390/3/6
f 390/3/6 388/3/6 391/3/6
f 390/2/6 391/2/6 392/2/6
f 392/2/6 391/2/6 393/2/6
f 392/3/6 393/3/6 394/3/6
f 394/3/6 393/3/6 396/3/6
f 396/3/6 393/3/6 397/3/6
f 395/1/6 396/1/6 398/1/6
f 396/1/6 397/1/6 398/1/6
f 398/1/6 397/1/6 399/1/6
f 400/1/6 401/1/6 402/1/6
f 402/1/6 401/1/6 403/1/6
f 402/3/6 403/3/6 404/3/6
f 404/3/6 403/3/6 405/3/6
f 404/2/6 405/2/6 406/2/6
f 406/2/6 405/2/6 407/2/6
f 406/3/6 407/3/6 408/3/6
f 408/3/6 407/3/6 409/3/6
f 408/1/6 409/1/6 410/1/6
f 410/1/6 409/1/6 411/1/6
f 412/1/6 413/1/6 415/1/6
f 415/1/6 413/1/6 416/1/6
f 414/1/6 415/1/6 417/1/6
f 415/3/6 416/3/6 418/3/6
f 417/1/6 415/1/6 418/1/6
f 418/3/6 416/3/6 419/3/6
f 418/1/6 419/1/6 420/1/6
f 420/1/6 419/1/6 421/1/6
