# MagicaVoxel @ Ephtracy

# group
o PookaGhost1

# material
mtllib PookaGhost1Quarter.mtl
usemtl palette

# normals
vn -1 0 0
vn 1 0 0
vn 0 -1 0
vn 0 1 0
vn 0 0 -1
vn 0 0 1

# texcoords
vt 0.185547 0.5
vt 0.876953 0.5
vt 0.962891 0.5

# verts
v -0.4 0.4 0.3
v -0.4 0.9 0.3
v -0.4 0.4 0.4
v -0.4 0.9 0.4
v -0.3 0.3 0.2
v -0.3 0.5 0.2
v -0.3 0.9 0.2
v -0.3 1 0.2
v -0.3 0.4 0.3
v -0.3 0.5 0.3
v -0.3 0.9 0.3
v -0.3 0.3 0.4
v -0.3 0.4 0.4
v -0.3 0.9 0.4
v -0.3 1 0.4
v -0.2 0.3 0.1
v -0.2 0.5 0.1
v -0.2 0.6 0.1
v -0.2 0.8 0.1
v -0.2 0.9 0.1
v -0.2 1 0.1
v -0.2 0.3 0.2
v -0.2 0.5 0.2
v -0.2 0.6 0.2
v -0.2 0.8 0.2
v -0.2 0.9 0.2
v -0.2 1 0.2
v -0.1 0.4 0
v -0.1 0.6 0
v -0.1 0.9 0
v -0.1 1 0
v -0.1 0.4 0.1
v -0.1 0.5 0.1
v -0.1 0.6 0.1
v -0.1 0.8 0.1
v -0.1 0.9 0.1
v -0.1 1 0.1
v 0 0.4 -0.1
v 0 0.6 -0.1
v 0 0.9 -0.1
v 0 1 -0.1
v 0 0.4 0
v 0 0.6 0
v 0 0.9 0
v 0 1 0
v 0.1 0.3 -0.2
v 0.1 0.5 -0.2
v 0.1 0.6 -0.2
v 0.1 0.8 -0.2
v 0.1 0.9 -0.2
v 0.1 1 -0.2
v 0.1 0.4 -0.1
v 0.1 0.5 -0.1
v 0.1 0.6 -0.1
v 0.1 0.8 -0.1
v 0.1 0.9 -0.1
v 0.1 1 -0.1
v 0.1 0.3 0
v 0.1 0.4 0
v 0.2 0.3 -0.3
v 0.2 0.5 -0.3
v 0.2 0.9 -0.3
v 0.2 1 -0.3
v 0.2 0.3 -0.2
v 0.2 0.5 -0.2
v 0.2 0.6 -0.2
v 0.2 0.8 -0.2
v 0.2 0.9 -0.2
v 0.2 1 -0.2
v 0.3 0.4 -0.4
v 0.3 0.9 -0.4
v 0.3 0.4 -0.3
v 0.3 0.5 -0.3
v 0.3 0.9 -0.3
v -0.2 0.3 0.3
v -0.2 0.5 0.3
v -0.2 0.6 0.3
v -0.2 0.8 0.3
v -0.2 0.9 0.3
v -0.2 1 0.3
v -0.2 0.3 0.4
v -0.2 0.5 0.4
v -0.2 0.8 0.4
v -0.2 1 0.4
v -0.1 0.3 0.2
v -0.1 0.5 0.2
v -0.1 0.6 0.2
v -0.1 0.8 0.2
v -0.1 0.9 0.2
v -0.1 1 0.2
v -0.1 0.3 0.3
v -0.1 0.5 0.3
v -0.1 0.6 0.3
v -0.1 0.8 0.3
v -0.1 0.9 0.3
v -0.1 1 0.3
v 0 0.3 0.1
v 0 0.4 0.1
v 0 0.5 0.1
v 0 0.6 0.1
v 0 0.9 0.1
v 0 1 0.1
v 0 0.3 0.2
v 0 0.5 0.2
v 0 0.9 0.2
v 0 1 0.2
v 0.1 0.4 0
v 0.1 0.5 0
v 0.1 0.6 0
v 0.1 0.9 0
v 0.1 1 0
v 0.1 0.4 0.1
v 0.1 0.6 0.1
v 0.1 0.9 0.1
v 0.1 1 0.1
v 0.2 0.3 -0.1
v 0.2 0.5 -0.1
v 0.2 0.6 -0.1
v 0.2 0.8 -0.1
v 0.2 0.9 -0.1
v 0.2 1 -0.1
v 0.2 0.3 0
v 0.2 0.5 0
v 0.2 0.9 0
v 0.2 1 0
v 0.3 0.3 -0.2
v 0.3 0.5 -0.2
v 0.3 0.6 -0.2
v 0.3 0.8 -0.2
v 0.3 0.9 -0.2
v 0.3 1 -0.2
v 0.3 0.3 -0.1
v 0.3 0.5 -0.1
v 0.3 0.6 -0.1
v 0.3 0.8 -0.1
v 0.3 0.9 -0.1
v 0.3 1 -0.1
v 0.4 0.4 -0.4
v 0.4 0.9 -0.4
v 0.4 0.3 -0.3
v 0.4 0.4 -0.3
v 0.4 0.5 -0.3
v 0.4 0.8 -0.3
v 0.4 0.9 -0.3
v 0.4 1 -0.3
v 0.4 0.3 -0.2
v 0.4 0.5 -0.2
v 0.4 0.8 -0.2
v 0.4 1 -0.2
v -0.3 0.3 0.2
v -0.3 0.3 0.4
v -0.2 0.3 0.1
v -0.2 0.3 0.2
v -0.2 0.3 0.3
v -0.2 0.3 0.4
v -0.1 0.3 0.2
v -0.1 0.3 0.3
v 0 0.3 0.1
v 0 0.3 0.2
v 0.1 0.3 -0.2
v 0.1 0.3 0
v 0.2 0.3 -0.3
v 0.2 0.3 -0.2
v 0.2 0.3 -0.1
v 0.2 0.3 0
v 0.3 0.3 -0.2
v 0.3 0.3 -0.1
v 0.4 0.3 -0.3
v 0.4 0.3 -0.2
v -0.4 0.4 0.3
v -0.4 0.4 0.4
v -0.3 0.4 0.3
v -0.3 0.4 0.4
v -0.1 0.4 0
v -0.1 0.4 0.1
v 0 0.4 -0.1
v 0 0.4 0
v 0 0.4 0.1
v 0.1 0.4 -0.1
v 0.1 0.4 0
v 0.1 0.4 0.1
v 0.3 0.4 -0.4
v 0.3 0.4 -0.3
v 0.4 0.4 -0.4
v 0.4 0.4 -0.3
v -0.4 0.9 0.3
v -0.4 0.9 0.4
v -0.3 0.9 0.3
v -0.3 0.9 0.4
v 0.3 0.9 -0.4
v 0.3 0.9 -0.3
v 0.4 0.9 -0.4
v 0.4 0.9 -0.3
v -0.3 1 0.2
v -0.3 1 0.4
v -0.2 1 0.1
v -0.2 1 0.2
v -0.2 1 0.3
v -0.2 1 0.4
v -0.1 1 0
v -0.1 1 0.1
v -0.1 1 0.2
v -0.1 1 0.3
v 0 1 -0.1
v 0 1 0
v 0 1 0.1
v 0 1 0.2
v 0.1 1 -0.2
v 0.1 1 -0.1
v 0.1 1 0
v 0.1 1 0.1
v 0.2 1 -0.3
v 0.2 1 -0.2
v 0.2 1 -0.1
v 0.2 1 0
v 0.3 1 -0.2
v 0.3 1 -0.1
v 0.4 1 -0.3
v 0.4 1 -0.2
v 0.3 0.4 -0.4
v 0.4 0.4 -0.4
v 0.3 0.9 -0.4
v 0.4 0.9 -0.4
v 0.2 0.3 -0.3
v 0.4 0.3 -0.3
v 0.3 0.4 -0.3
v 0.4 0.4 -0.3
v 0.2 0.5 -0.3
v 0.3 0.5 -0.3
v 0.2 0.9 -0.3
v 0.3 0.9 -0.3
v 0.4 0.9 -0.3
v 0.2 1 -0.3
v 0.4 1 -0.3
v 0.1 0.3 -0.2
v 0.2 0.3 -0.2
v 0.1 0.5 -0.2
v 0.2 0.5 -0.2
v 0.1 0.6 -0.2
v 0.2 0.6 -0.2
v 0.1 0.8 -0.2
v 0.2 0.8 -0.2
v 0.1 0.9 -0.2
v 0.2 0.9 -0.2
v 0.1 1 -0.2
v 0.2 1 -0.2
v 0 0.4 -0.1
v 0.1 0.4 -0.1
v 0.1 0.5 -0.1
v 0 0.6 -0.1
v 0.1 0.6 -0.1
v 0.1 0.8 -0.1
v 0 0.9 -0.1
v 0.1 0.9 -0.1
v 0 1 -0.1
v 0.1 1 -0.1
v -0.1 0.4 0
v 0 0.4 0
v -0.1 0.6 0
v 0 0.6 0
v -0.1 0.9 0
v 0 0.9 0
v -0.1 1 0
v 0 1 0
v -0.2 0.3 0.1
v 0 0.3 0.1
v -0.1 0.4 0.1
v 0 0.4 0.1
v -0.2 0.5 0.1
v -0.1 0.5 0.1
v -0.2 0.6 0.1
v -0.1 0.6 0.1
v -0.2 0.8 0.1
v -0.1 0.8 0.1
v -0.2 0.9 0.1
v -0.1 0.9 0.1
v -0.2 1 0.1
v -0.1 1 0.1
v -0.3 0.3 0.2
v -0.2 0.3 0.2
v -0.3 0.5 0.2
v -0.2 0.5 0.2
v -0.2 0.6 0.2
v -0.2 0.8 0.2
v -0.3 0.9 0.2
v -0.2 0.9 0.2
v -0.3 1 0.2
v -0.2 1 0.2
v -0.4 0.4 0.3
v -0.3 0.4 0.3
v -0.3 0.5 0.3
v -0.4 0.9 0.3
v -0.3 0.9 0.3
v 0.3 0.3 -0.2
v 0.4 0.3 -0.2
v 0.3 0.5 -0.2
v 0.4 0.5 -0.2
v 0.3 0.6 -0.2
v 0.3 0.8 -0.2
v 0.4 0.8 -0.2
v 0.3 0.9 -0.2
v 0.3 1 -0.2
v 0.4 1 -0.2
v 0.2 0.3 -0.1
v 0.3 0.3 -0.1
v 0.2 0.5 -0.1
v 0.3 0.5 -0.1
v 0.2 0.6 -0.1
v 0.3 0.6 -0.1
v 0.2 0.8 -0.1
v 0.3 0.8 -0.1
v 0.2 0.9 -0.1
v 0.3 0.9 -0.1
v 0.2 1 -0.1
v 0.3 1 -0.1
v 0.1 0.3 0
v 0.2 0.3 0
v 0.1 0.4 0
v 0.1 0.5 0
v 0.2 0.5 0
v 0.1 0.6 0
v 0.1 0.9 0
v 0.2 0.9 0
v 0.1 1 0
v 0.2 1 0
v 0 0.4 0.1
v 0.1 0.4 0.1
v 0 0.5 0.1
v 0 0.6 0.1
v 0.1 0.6 0.1
v 0 0.9 0.1
v 0.1 0.9 0.1
v 0 1 0.1
v 0.1 1 0.1
v -0.1 0.3 0.2
v 0 0.3 0.2
v -0.1 0.5 0.2
v 0 0.5 0.2
v -0.1 0.6 0.2
v -0.1 0.8 0.2
v -0.1 0.9 0.2
v 0 0.9 0.2
v -0.1 1 0.2
v 0 1 0.2
v -0.2 0.3 0.3
v -0.1 0.3 0.3
v -0.2 0.5 0.3
v -0.1 0.5 0.3
v -0.2 0.6 0.3
v -0.1 0.6 0.3
v -0.2 0.8 0.3
v -0.1 0.8 0.3
v -0.2 0.9 0.3
v -0.1 0.9 0.3
v -0.2 1 0.3
v -0.1 1 0.3
v -0.3 0.3 0.4
v -0.2 0.3 0.4
v -0.4 0.4 0.4
v -0.3 0.4 0.4
v -0.3 0.5 0.4
v -0.2 0.5 0.4
v -0.3 0.8 0.4
v -0.2 0.8 0.4
v -0.4 0.9 0.4
v -0.3 0.9 0.4
v -0.3 1 0.4
v -0.2 1 0.4

# faces
f 3/1/1 2/1/1 1/1/1
f 4/1/1 2/1/1 3/1/1
f 9/1/1 6/1/1 5/1/1
f 10/3/1 7/3/1 6/3/1
f 10/1/1 6/1/1 9/1/1
f 11/1/1 8/1/1 7/1/1
f 11/3/1 7/3/1 10/3/1
f 12/1/1 9/1/1 5/1/1
f 13/1/1 9/1/1 12/1/1
f 14/1/1 8/1/1 11/1/1
f 15/1/1 8/1/1 14/1/1
f 22/1/1 17/1/1 16/1/1
f 23/3/1 18/3/1 17/3/1
f 23/1/1 17/1/1 22/1/1
f 24/2/1 19/2/1 18/2/1
f 24/3/1 18/3/1 23/3/1
f 25/3/1 20/3/1 19/3/1
f 25/2/1 19/2/1 24/2/1
f 26/1/1 21/1/1 20/1/1
f 26/3/1 20/3/1 25/3/1
f 27/1/1 21/1/1 26/1/1
f 32/1/1 29/1/1 28/1/1
f 33/1/1 29/1/1 32/1/1
f 34/3/1 30/3/1 29/3/1
f 34/1/1 29/1/1 33/1/1
f 35/3/1 30/3/1 34/3/1
f 36/1/1 31/1/1 30/1/1
f 36/3/1 30/3/1 35/3/1
f 37/1/1 31/1/1 36/1/1
f 42/1/1 39/1/1 38/1/1
f 43/3/1 40/3/1 39/3/1
f 43/1/1 39/1/1 42/1/1
f 44/1/1 41/1/1 40/1/1
f 44/3/1 40/3/1 43/3/1
f 45/1/1 41/1/1 44/1/1
f 52/1/1 47/1/1 46/1/1
f 53/3/1 48/3/1 47/3/1
f 53/1/1 47/1/1 52/1/1
f 54/2/1 49/2/1 48/2/1
f 54/3/1 48/3/1 53/3/1
f 55/3/1 50/3/1 49/3/1
f 55/2/1 49/2/1 54/2/1
f 56/1/1 51/1/1 50/1/1
f 56/3/1 50/3/1 55/3/1
f 57/1/1 51/1/1 56/1/1
f 58/1/1 52/1/1 46/1/1
f 59/1/1 52/1/1 58/1/1
f 64/1/1 61/1/1 60/1/1
f 65/3/1 62/3/1 61/3/1
f 65/1/1 61/1/1 64/1/1
f 66/3/1 62/3/1 65/3/1
f 67/3/1 62/3/1 66/3/1
f 68/1/1 63/1/1 62/1/1
f 68/3/1 62/3/1 67/3/1
f 69/1/1 63/1/1 68/1/1
f 72/1/1 71/1/1 70/1/1
f 73/1/1 71/1/1 72/1/1
f 74/1/1 71/1/1 73/1/1
f 75/1/2 76/1/2 81/1/2
f 76/3/2 77/3/2 82/3/2
f 81/1/2 76/1/2 82/1/2
f 77/3/2 78/3/2 82/3/2
f 79/1/2 80/1/2 83/1/2
f 82/3/2 78/3/2 83/3/2
f 78/1/2 79/1/2 83/1/2
f 83/1/2 80/1/2 84/1/2
f 85/1/2 86/1/2 91/1/2
f 86/3/2 87/3/2 92/3/2
f 91/1/2 86/1/2 92/1/2
f 87/2/2 88/2/2 93/2/2
f 92/3/2 87/3/2 93/3/2
f 88/3/2 89/3/2 94/3/2
f 93/2/2 88/2/2 94/2/2
f 89/1/2 90/1/2 95/1/2
f 94/3/2 89/3/2 95/3/2
f 95/1/2 90/1/2 96/1/2
f 97/1/2 98/1/2 103/1/2
f 98/1/2 99/1/2 103/1/2
f 100/3/2 101/3/2 104/3/2
f 103/1/2 99/1/2 104/1/2
f 99/3/2 100/3/2 104/3/2
f 101/1/2 102/1/2 105/1/2
f 104/3/2 101/3/2 105/3/2
f 105/1/2 102/1/2 106/1/2
f 107/1/2 108/1/2 112/1/2
f 108/1/2 109/1/2 112/1/2
f 109/3/2 110/3/2 113/3/2
f 112/1/2 109/1/2 113/1/2
f 110/1/2 111/1/2 114/1/2
f 113/3/2 110/3/2 114/3/2
f 114/1/2 111/1/2 115/1/2
f 116/1/2 117/1/2 122/1/2
f 117/3/2 118/3/2 123/3/2
f 122/1/2 117/1/2 123/1/2
f 118/3/2 119/3/2 123/3/2
f 119/3/2 120/3/2 123/3/2
f 120/1/2 121/1/2 124/1/2
f 123/3/2 120/3/2 124/3/2
f 124/1/2 121/1/2 125/1/2
f 126/1/2 127/1/2 132/1/2
f 127/3/2 128/3/2 133/3/2
f 132/1/2 127/1/2 133/1/2
f 128/2/2 129/2/2 134/2/2
f 133/3/2 128/3/2 134/3/2
f 129/3/2 130/3/2 135/3/2
f 134/2/2 129/2/2 135/2/2
f 130/1/2 131/1/2 136/1/2
f 135/3/2 130/3/2 136/3/2
f 136/1/2 131/1/2 137/1/2
f 138/1/2 139/1/2 141/1/2
f 141/1/2 139/1/2 142/1/2
f 142/1/2 139/1/2 143/1/2
f 143/1/2 139/1/2 144/1/2
f 140/1/2 141/1/2 146/1/2
f 141/1/2 142/1/2 146/1/2
f 142/3/2 143/3/2 147/3/2
f 146/1/2 142/1/2 147/1/2
f 144/1/2 145/1/2 148/1/2
f 147/3/2 143/3/2 148/3/2
f 143/1/2 144/1/2 148/1/2
f 148/1/2 145/1/2 149/1/2
f 153/1/3 151/1/3 150/1/3
f 154/1/3 151/1/3 153/1/3
f 155/1/3 151/1/3 154/1/3
f 156/1/3 153/1/3 152/1/3
f 156/1/3 154/1/3 153/1/3
f 157/1/3 154/1/3 156/1/3
f 158/1/3 156/1/3 152/1/3
f 159/1/3 156/1/3 158/1/3
f 163/1/3 161/1/3 160/1/3
f 164/1/3 161/1/3 163/1/3
f 165/1/3 161/1/3 164/1/3
f 166/1/3 163/1/3 162/1/3
f 166/1/3 164/1/3 163/1/3
f 167/1/3 164/1/3 166/1/3
f 168/1/3 166/1/3 162/1/3
f 169/1/3 166/1/3 168/1/3
f 172/1/3 171/1/3 170/1/3
f 173/1/3 171/1/3 172/1/3
f 177/1/3 175/1/3 174/1/3
f 178/1/3 175/1/3 177/1/3
f 179/1/3 177/1/3 176/1/3
f 179/1/3 178/1/3 177/1/3
f 180/1/3 178/1/3 179/1/3
f 181/1/3 178/1/3 180/1/3
f 184/1/3 183/1/3 182/1/3
f 185/1/3 183/1/3 184/1/3
f 186/1/4 187/1/4 188/1/4
f 188/1/4 187/1/4 189/1/4
f 190/1/4 191/1/4 192/1/4
f 192/1/4 191/1/4 193/1/4
f 194/1/4 195/1/4 197/1/4
f 197/1/4 195/1/4 198/1/4
f 198/1/4 195/1/4 199/1/4
f 196/1/4 197/1/4 201/1/4
f 197/1/4 198/1/4 201/1/4
f 201/1/4 198/1/4 202/1/4
f 202/1/4 198/1/4 203/1/4
f 200/1/4 201/1/4 205/1/4
f 201/1/4 202/1/4 205/1/4
f 205/1/4 202/1/4 206/1/4
f 206/1/4 202/1/4 207/1/4
f 204/1/4 205/1/4 209/1/4
f 205/1/4 206/1/4 209/1/4
f 209/1/4 206/1/4 210/1/4
f 210/1/4 206/1/4 211/1/4
f 208/1/4 209/1/4 213/1/4
f 209/1/4 210/1/4 213/1/4
f 213/1/4 210/1/4 214/1/4
f 214/1/4 210/1/4 215/1/4
f 212/1/4 213/1/4 216/1/4
f 213/1/4 214/1/4 216/1/4
f 216/1/4 214/1/4 217/1/4
f 212/1/4 216/1/4 218/1/4
f 218/1/4 216/1/4 219/1/4
f 222/1/5 221/1/5 220/1/5
f 223/1/5 221/1/5 222/1/5
f 226/1/5 225/1/5 224/1/5
f 227/1/5 225/1/5 226/1/5
f 228/1/5 226/1/5 224/1/5
f 229/1/5 226/1/5 228/1/5
f 230/3/5 229/3/5 228/3/5
f 231/3/5 229/3/5 230/3/5
f 233/1/5 231/1/5 230/1/5
f 233/1/5 232/1/5 231/1/5
f 234/1/5 232/1/5 233/1/5
f 237/1/5 236/1/5 235/1/5
f 238/1/5 236/1/5 237/1/5
f 239/3/5 238/3/5 237/3/5
f 240/3/5 238/3/5 239/3/5
f 241/2/5 240/2/5 239/2/5
f 242/2/5 240/2/5 241/2/5
f 243/3/5 242/3/5 241/3/5
f 244/3/5 242/3/5 243/3/5
f 245/1/5 244/1/5 243/1/5
f 246/1/5 244/1/5 245/1/5
f 249/1/5 248/1/5 247/1/5
f 250/1/5 249/1/5 247/1/5
f 251/1/5 249/1/5 250/1/5
f 252/3/5 251/3/5 250/3/5
f 253/3/5 252/3/5 250/3/5
f 254/3/5 252/3/5 253/3/5
f 255/1/5 254/1/5 253/1/5
f 256/1/5 254/1/5 255/1/5
f 259/1/5 258/1/5 257/1/5
f 260/1/5 258/1/5 259/1/5
f 261/3/5 260/3/5 259/3/5
f 262/3/5 260/3/5 261/3/5
f 263/1/5 262/1/5 261/1/5
f 264/1/5 262/1/5 263/1/5
f 267/1/5 266/1/5 265/1/5
f 268/1/5 266/1/5 267/1/5
f 269/1/5 267/1/5 265/1/5
f 270/1/5 267/1/5 269/1/5
f 271/3/5 270/3/5 269/3/5
f 272/3/5 270/3/5 271/3/5
f 273/2/5 272/2/5 271/2/5
f 274/2/5 272/2/5 273/2/5
f 275/3/5 274/3/5 273/3/5
f 276/3/5 274/3/5 275/3/5
f 277/1/5 276/1/5 275/1/5
f 278/1/5 276/1/5 277/1/5
f 281/1/5 280/1/5 279/1/5
f 282/1/5 280/1/5 281/1/5
f 283/3/5 282/3/5 281/3/5
f 284/3/5 283/3/5 281/3/5
f 285/3/5 284/3/5 281/3/5
f 286/3/5 284/3/5 285/3/5
f 287/1/5 286/1/5 285/1/5
f 288/1/5 286/1/5 287/1/5
f 291/1/5 290/1/5 289/1/5
f 292/1/5 291/1/5 289/1/5
f 293/1/5 291/1/5 292/1/5
f 294/1/6 295/1/6 296/1/6
f 296/1/6 295/1/6 297/1/6
f 296/3/6 297/3/6 298/3/6
f 298/3/6 297/3/6 299/3/6
f 299/3/6 297/3/6 300/3/6
f 299/1/6 300/1/6 301/1/6
f 301/1/6 300/1/6 302/1/6
f 302/1/6 300/1/6 303/1/6
f 304/1/6 305/1/6 306/1/6
f 306/1/6 305/1/6 307/1/6
f 306/3/6 307/3/6 308/3/6
f 308/3/6 307/3/6 309/3/6
f 308/2/6 309/2/6 310/2/6
f 310/2/6 309/2/6 311/2/6
f 310/3/6 311/3/6 312/3/6
f 312/3/6 311/3/6 313/3/6
f 312/1/6 313/1/6 314/1/6
f 314/1/6 313/1/6 315/1/6
f 316/1/6 317/1/6 318/1/6
f 318/1/6 317/1/6 319/1/6
f 319/1/6 317/1/6 320/1/6
f 319/3/6 320/3/6 321/3/6
f 321/3/6 320/3/6 322/3/6
f 322/3/6 320/3/6 323/3/6
f 322/1/6 323/1/6 324/1/6
f 324/1/6 323/1/6 325/1/6
f 326/1/6 327/1/6 328/1/6
f 328/1/6 327/1/6 329/1/6
f 329/1/6 327/1/6 330/1/6
f 329/3/6 330/3/6 331/3/6
f 331/3/6 330/3/6 332/3/6
f 331/1/6 332/1/6 333/1/6
f 333/1/6 332/1/6 334/1/6
f 335/1/6 336/1/6 337/1/6
f 337/1/6 336/1/6 338/1/6
f 337/3/6 338/3/6 339/3/6
f 339/3/6 338/3/6 340/3/6
f 340/3/6 338/3/6 341/3/6
f 341/3/6 338/3/6 342/3/6
f 341/1/6 342/1/6 343/1/6
f 343/1/6 342/1/6 344/1/6
f 345/1/6 346/1/6 347/1/6
f 347/1/6 346/1/6 348/1/6
f 347/3/6 348/3/6 349/3/6
f 349/3/6 348/3/6 350/3/6
f 349/2/6 350/2/6 351/2/6
f 351/2/6 350/2/6 352/2/6
f 351/3/6 352/3/6 353/3/6
f 353/3/6 352/3/6 354/3/6
f 353/1/6 354/1/6 355/1/6
f 355/1/6 354/1/6 356/1/6
f 357/1/6 358/1/6 360/1/6
f 360/1/6 358/1/6 361/1/6
f 359/1/6 360/1/6 361/1/6
f 361/1/6 358/1/6 362/1/6
f 359/1/6 361/1/6 363/1/6
f 361/3/6 362/3/6 363/3/6
f 363/3/6 362/3/6 364/3/6
f 359/1/6 363/1/6 365/1/6
f 363/1/6 364/1/6 365/1/6
f 365/1/6 364/1/6 366/1/6
f 366/1/6 364/1/6 367/1/6
f 367/1/6 364/1/6 368/1/6
