# MagicaVoxel @ Ephtracy

# group
o FygarGhost2

# material
mtllib FygarGhost2Quarter.mtl
usemtl palette

# normals
vn -1 0 0
vn 1 0 0
vn 0 -1 0
vn 0 1 0
vn 0 0 -1
vn 0 0 1

# texcoords
vt 0.876953 0.5
vt 0.962891 0.5

# verts
v -0.5 0.4 0.4
v -0.5 0.6 0.4
v -0.5 0.8 0.4
v -0.5 1.2 0.4
v -0.5 0.4 0.5
v -0.5 0.6 0.5
v -0.5 0.8 0.5
v -0.5 1.2 0.5
v -0.4 0.3 0.3
v -0.4 0.4 0.3
v -0.4 0.7 0.3
v -0.4 0.8 0.3
v -0.4 1.1 0.3
v -0.4 1.2 0.3
v -0.4 0.3 0.4
v -0.4 0.4 0.4
v -0.4 0.7 0.4
v -0.4 0.8 0.4
v -0.4 1.1 0.4
v -0.4 1.2 0.4
v -0.3 0.2 0.2
v -0.3 0.3 0.2
v -0.3 0.4 0.2
v -0.3 0.5 0.2
v -0.3 0.6 0.2
v -0.3 0.7 0.2
v -0.3 1 0.2
v -0.3 1.1 0.2
v -0.3 0.2 0.3
v -0.3 0.3 0.3
v -0.3 0.4 0.3
v -0.3 0.5 0.3
v -0.3 0.6 0.3
v -0.3 0.7 0.3
v -0.3 0.8 0.3
v -0.3 1 0.3
v -0.3 1.1 0.3
v -0.2 0.2 0.1
v -0.2 0.3 0.1
v -0.2 0.4 0.1
v -0.2 0.5 0.1
v -0.2 0.6 0.1
v -0.2 0.7 0.1
v -0.2 1 0.1
v -0.2 1.1 0.1
v -0.2 0.2 0.2
v -0.2 0.3 0.2
v -0.2 0.4 0.2
v -0.2 0.5 0.2
v -0.2 0.6 0.2
v -0.2 0.7 0.2
v -0.2 1 0.2
v -0.2 1.1 0.2
v -0.1 0.1 -5.96046e-08
v -0.1 0.2 -5.96046e-08
v -0.1 0.3 -5.96046e-08
v -0.1 0.4 -5.96046e-08
v -0.1 0.7 -5.96046e-08
v -0.1 1 -5.96046e-08
v -0.1 0.1 0.1
v -0.1 0.2 0.1
v -0.1 0.3 0.1
v -0.1 0.4 0.1
v -0.1 0.7 0.1
v -0.1 1 0.1
v 0 0.1 -0.1
v 0 0.4 -0.1
v 0 0.1 -5.96046e-08
v 0 0.2 -5.96046e-08
v 0 0.3 -5.96046e-08
v 0 0.4 -5.96046e-08
v 0.1 0.1 -0.2
v 0.1 0.2 -0.2
v 0.1 0.3 -0.2
v 0.1 0.4 -0.2
v 0.1 0.7 -0.2
v 0.1 1 -0.2
v 0.1 0.1 -0.1
v 0.1 0.2 -0.1
v 0.1 0.3 -0.1
v 0.1 0.4 -0.1
v 0.1 0.7 -0.1
v 0.1 1 -0.1
v 0.2 0.2 -0.3
v 0.2 0.3 -0.3
v 0.2 0.4 -0.3
v 0.2 0.5 -0.3
v 0.2 0.6 -0.3
v 0.2 0.7 -0.3
v 0.2 1 -0.3
v 0.2 1.1 -0.3
v 0.2 0.2 -0.2
v 0.2 0.3 -0.2
v 0.2 0.4 -0.2
v 0.2 0.5 -0.2
v 0.2 0.6 -0.2
v 0.2 0.7 -0.2
v 0.2 1 -0.2
v 0.2 1.1 -0.2
v 0.3 0.2 -0.4
v 0.3 0.3 -0.4
v 0.3 0.4 -0.4
v 0.3 0.5 -0.4
v 0.3 0.6 -0.4
v 0.3 0.7 -0.4
v 0.3 1 -0.4
v 0.3 1.1 -0.4
v 0.3 0.2 -0.3
v 0.3 0.3 -0.3
v 0.3 0.4 -0.3
v 0.3 0.5 -0.3
v 0.3 0.6 -0.3
v 0.3 0.7 -0.3
v 0.3 1 -0.3
v 0.3 1.1 -0.3
v 0.4 0.3 -0.5
v 0.4 0.4 -0.5
v 0.4 0.7 -0.5
v 0.4 0.8 -0.5
v 0.4 1.1 -0.5
v 0.4 1.2 -0.5
v 0.4 0.3 -0.4
v 0.4 0.4 -0.4
v 0.4 0.7 -0.4
v 0.4 0.8 -0.4
v 0.4 1 -0.4
v 0.4 1.1 -0.4
v 0.4 1.2 -0.4
v 0.5 0.4 -0.6
v 0.5 0.6 -0.6
v 0.5 0.8 -0.6
v 0.5 1.2 -0.6
v 0.5 0.4 -0.5
v 0.5 0.6 -0.5
v 0.5 0.8 -0.5
v 0.5 1.1 -0.5
v 0.5 1.2 -0.5
v -0.4 0.4 0.4
v -0.4 0.6 0.4
v -0.4 0.8 0.4
v -0.4 1.1 0.4
v -0.4 1.2 0.4
v -0.4 0.4 0.5
v -0.4 0.6 0.5
v -0.4 0.8 0.5
v -0.4 1.2 0.5
v -0.3 0.3 0.3
v -0.3 0.4 0.3
v -0.3 0.7 0.3
v -0.3 0.8 0.3
v -0.3 1 0.3
v -0.3 1.1 0.3
v -0.3 1.2 0.3
v -0.3 0.3 0.4
v -0.3 0.4 0.4
v -0.3 0.7 0.4
v -0.3 0.8 0.4
v -0.3 1.1 0.4
v -0.3 1.2 0.4
v -0.2 0.2 0.2
v -0.2 0.3 0.2
v -0.2 0.4 0.2
v -0.2 0.5 0.2
v -0.2 0.6 0.2
v -0.2 0.7 0.2
v -0.2 1 0.2
v -0.2 1.1 0.2
v -0.2 0.2 0.3
v -0.2 0.3 0.3
v -0.2 0.4 0.3
v -0.2 0.5 0.3
v -0.2 0.6 0.3
v -0.2 0.7 0.3
v -0.2 1 0.3
v -0.2 1.1 0.3
v -0.1 0.2 0.1
v -0.1 0.3 0.1
v -0.1 0.4 0.1
v -0.1 0.5 0.1
v -0.1 0.6 0.1
v -0.1 0.7 0.1
v -0.1 1 0.1
v -0.1 1.1 0.1
v -0.1 0.2 0.2
v -0.1 0.3 0.2
v -0.1 0.4 0.2
v -0.1 0.5 0.2
v -0.1 0.6 0.2
v -0.1 0.7 0.2
v -0.1 1 0.2
v -0.1 1.1 0.2
v 0 0.1 -5.96046e-08
v 0 0.2 -5.96046e-08
v 0 0.3 -5.96046e-08
v 0 0.4 -5.96046e-08
v 0 0.7 -5.96046e-08
v 0 1 -5.96046e-08
v 0 0.1 0.1
v 0 0.2 0.1
v 0 0.3 0.1
v 0 0.4 0.1
v 0 0.7 0.1
v 0 1 0.1
v 0.1 0.1 -0.1
v 0.1 0.2 -0.1
v 0.1 0.3 -0.1
v 0.1 0.4 -0.1
v 0.1 0.1 -5.96046e-08
v 0.1 0.4 -5.96046e-08
v 0.2 0.1 -0.2
v 0.2 0.2 -0.2
v 0.2 0.3 -0.2
v 0.2 0.4 -0.2
v 0.2 0.7 -0.2
v 0.2 1 -0.2
v 0.2 0.1 -0.1
v 0.2 0.2 -0.1
v 0.2 0.3 -0.1
v 0.2 0.4 -0.1
v 0.2 0.7 -0.1
v 0.2 1 -0.1
v 0.3 0.2 -0.3
v 0.3 0.3 -0.3
v 0.3 0.4 -0.3
v 0.3 0.5 -0.3
v 0.3 0.6 -0.3
v 0.3 0.7 -0.3
v 0.3 1 -0.3
v 0.3 1.1 -0.3
v 0.3 0.2 -0.2
v 0.3 0.3 -0.2
v 0.3 0.4 -0.2
v 0.3 0.5 -0.2
v 0.3 0.6 -0.2
v 0.3 0.7 -0.2
v 0.3 1 -0.2
v 0.3 1.1 -0.2
v 0.4 0.2 -0.4
v 0.4 0.3 -0.4
v 0.4 0.4 -0.4
v 0.4 0.5 -0.4
v 0.4 0.6 -0.4
v 0.4 0.7 -0.4
v 0.4 0.8 -0.4
v 0.4 1 -0.4
v 0.4 1.1 -0.4
v 0.4 0.2 -0.3
v 0.4 0.3 -0.3
v 0.4 0.4 -0.3
v 0.4 0.5 -0.3
v 0.4 0.6 -0.3
v 0.4 0.7 -0.3
v 0.4 1 -0.3
v 0.4 1.1 -0.3
v 0.5 0.3 -0.5
v 0.5 0.4 -0.5
v 0.5 0.7 -0.5
v 0.5 0.8 -0.5
v 0.5 1.1 -0.5
v 0.5 1.2 -0.5
v 0.5 0.3 -0.4
v 0.5 0.4 -0.4
v 0.5 0.7 -0.4
v 0.5 0.8 -0.4
v 0.5 1.1 -0.4
v 0.5 1.2 -0.4
v 0.6 0.4 -0.6
v 0.6 0.6 -0.6
v 0.6 0.8 -0.6
v 0.6 1.2 -0.6
v 0.6 0.4 -0.5
v 0.6 0.6 -0.5
v 0.6 0.8 -0.5
v 0.6 1.2 -0.5
v -0.1 0.1 -5.96046e-08
v -0.1 0.1 0.1
v 0 0.1 -0.1
v 0 0.1 -5.96046e-08
v 0 0.1 0.1
v 0.1 0.1 -0.2
v 0.1 0.1 -0.1
v 0.1 0.1 -5.96046e-08
v 0.2 0.1 -0.2
v 0.2 0.1 -0.1
v -0.3 0.2 0.2
v -0.3 0.2 0.3
v -0.2 0.2 0.1
v -0.2 0.2 0.2
v -0.2 0.2 0.3
v -0.1 0.2 0.1
v -0.1 0.2 0.2
v 0.2 0.2 -0.3
v 0.2 0.2 -0.2
v 0.3 0.2 -0.4
v 0.3 0.2 -0.3
v 0.3 0.2 -0.2
v 0.4 0.2 -0.4
v 0.4 0.2 -0.3
v -0.4 0.3 0.3
v -0.4 0.3 0.4
v -0.3 0.3 0.3
v -0.3 0.3 0.4
v -0.1 0.3 -5.96046e-08
v -0.1 0.3 0.1
v 0 0.3 -5.96046e-08
v 0 0.3 0.1
v 0.1 0.3 -0.2
v 0.1 0.3 -0.1
v 0.2 0.3 -0.2
v 0.2 0.3 -0.1
v 0.4 0.3 -0.5
v 0.4 0.3 -0.4
v 0.5 0.3 -0.5
v 0.5 0.3 -0.4
v -0.5 0.4 0.4
v -0.5 0.4 0.5
v -0.4 0.4 0.4
v -0.4 0.4 0.5
v -0.3 0.4 0.2
v -0.3 0.4 0.3
v -0.2 0.4 0.1
v -0.2 0.4 0.2
v -0.2 0.4 0.3
v -0.1 0.4 0.1
v -0.1 0.4 0.2
v 0.2 0.4 -0.3
v 0.2 0.4 -0.2
v 0.3 0.4 -0.4
v 0.3 0.4 -0.3
v 0.3 0.4 -0.2
v 0.4 0.4 -0.4
v 0.4 0.4 -0.3
v 0.5 0.4 -0.6
v 0.5 0.4 -0.5
v 0.6 0.4 -0.6
v 0.6 0.4 -0.5
v -0.3 0.6 0.2
v -0.3 0.6 0.3
v -0.2 0.6 0.1
v -0.2 0.6 0.2
v -0.2 0.6 0.3
v -0.1 0.6 0.1
v -0.1 0.6 0.2
v 0.2 0.6 -0.3
v 0.2 0.6 -0.2
v 0.3 0.6 -0.4
v 0.3 0.6 -0.3
v 0.3 0.6 -0.2
v 0.4 0.6 -0.4
v 0.4 0.6 -0.3
v -0.4 0.7 0.3
v -0.4 0.7 0.4
v -0.3 0.7 0.3
v -0.3 0.7 0.4
v -0.1 0.7 -5.96046e-08
v -0.1 0.7 0.1
v 0 0.7 -5.96046e-08
v 0 0.7 0.1
v 0.1 0.7 -0.2
v 0.1 0.7 -0.1
v 0.2 0.7 -0.2
v 0.2 0.7 -0.1
v 0.4 0.7 -0.5
v 0.4 0.7 -0.4
v 0.5 0.7 -0.5
v 0.5 0.7 -0.4
v -0.5 0.8 0.4
v -0.5 0.8 0.5
v -0.4 0.8 0.4
v -0.4 0.8 0.5
v 0.5 0.8 -0.6
v 0.5 0.8 -0.5
v 0.6 0.8 -0.6
v 0.6 0.8 -0.5
v -0.1 0.2 -5.96046e-08
v -0.1 0.2 0.1
v 0 0.2 -5.96046e-08
v 0 0.2 0.1
v 0.1 0.2 -0.2
v 0.1 0.2 -0.1
v 0.2 0.2 -0.2
v 0.2 0.2 -0.1
v -0.3 0.3 0.2
v -0.3 0.3 0.3
v -0.2 0.3 0.1
v -0.2 0.3 0.2
v -0.2 0.3 0.3
v -0.1 0.3 0.1
v -0.1 0.3 0.2
v 0.2 0.3 -0.3
v 0.2 0.3 -0.2
v 0.3 0.3 -0.4
v 0.3 0.3 -0.3
v 0.3 0.3 -0.2
v 0.4 0.3 -0.4
v 0.4 0.3 -0.3
v -0.4 0.4 0.3
v -0.4 0.4 0.4
v -0.3 0.4 0.3
v -0.3 0.4 0.4
v -0.1 0.4 -5.96046e-08
v -0.1 0.4 0.1
v 0 0.4 -0.1
v 0 0.4 -5.96046e-08
v 0 0.4 0.1
v 0.1 0.4 -0.2
v 0.1 0.4 -0.1
v 0.1 0.4 -5.96046e-08
v 0.2 0.4 -0.2
v 0.2 0.4 -0.1
v 0.4 0.4 -0.5
v 0.4 0.4 -0.4
v 0.5 0.4 -0.5
v 0.5 0.4 -0.4
v -0.3 0.5 0.2
v -0.3 0.5 0.3
v -0.2 0.5 0.1
v -0.2 0.5 0.2
v -0.2 0.5 0.3
v -0.1 0.5 0.1
v -0.1 0.5 0.2
v 0.2 0.5 -0.3
v 0.2 0.5 -0.2
v 0.3 0.5 -0.4
v 0.3 0.5 -0.3
v 0.3 0.5 -0.2
v 0.4 0.5 -0.4
v 0.4 0.5 -0.3
v -0.5 0.6 0.4
v -0.5 0.6 0.5
v -0.4 0.6 0.4
v -0.4 0.6 0.5
v 0.5 0.6 -0.6
v 0.5 0.6 -0.5
v 0.6 0.6 -0.6
v 0.6 0.6 -0.5
v -0.1 1 -5.96046e-08
v -0.1 1 0.1
v 0 1 -5.96046e-08
v 0 1 0.1
v 0.1 1 -0.2
v 0.1 1 -0.1
v 0.2 1 -0.2
v 0.2 1 -0.1
v -0.3 1.1 0.2
v -0.3 1.1 0.3
v -0.2 1.1 0.1
v -0.2 1.1 0.2
v -0.2 1.1 0.3
v -0.1 1.1 0.1
v -0.1 1.1 0.2
v 0.2 1.1 -0.3
v 0.2 1.1 -0.2
v 0.3 1.1 -0.4
v 0.3 1.1 -0.3
v 0.3 1.1 -0.2
v 0.4 1.1 -0.4
v 0.4 1.1 -0.3
v -0.5 1.2 0.4
v -0.5 1.2 0.5
v -0.4 1.2 0.3
v -0.4 1.2 0.4
v -0.4 1.2 0.5
v -0.3 1.2 0.3
v -0.3 1.2 0.4
v 0.4 1.2 -0.5
v 0.4 1.2 -0.4
v 0.5 1.2 -0.6
v 0.5 1.2 -0.5
v 0.5 1.2 -0.4
v 0.6 1.2 -0.6
v 0.6 1.2 -0.5
v 0.5 0.4 -0.6
v 0.6 0.4 -0.6
v 0.5 0.6 -0.6
v 0.6 0.6 -0.6
v 0.5 0.8 -0.6
v 0.6 0.8 -0.6
v 0.5 1.2 -0.6
v 0.6 1.2 -0.6
v 0.4 0.3 -0.5
v 0.5 0.3 -0.5
v 0.4 0.4 -0.5
v 0.5 0.4 -0.5
v 0.4 0.7 -0.5
v 0.5 0.7 -0.5
v 0.4 0.8 -0.5
v 0.5 0.8 -0.5
v 0.4 1.1 -0.5
v 0.5 1.1 -0.5
v 0.4 1.2 -0.5
v 0.5 1.2 -0.5
v 0.3 0.2 -0.4
v 0.4 0.2 -0.4
v 0.3 0.3 -0.4
v 0.4 0.3 -0.4
v 0.3 0.4 -0.4
v 0.4 0.4 -0.4
v 0.3 0.5 -0.4
v 0.4 0.5 -0.4
v 0.3 0.6 -0.4
v 0.4 0.6 -0.4
v 0.3 0.7 -0.4
v 0.4 0.7 -0.4
v 0.4 0.8 -0.4
v 0.3 1 -0.4
v 0.4 1 -0.4
v 0.3 1.1 -0.4
v 0.4 1.1 -0.4
v 0.2 0.2 -0.3
v 0.3 0.2 -0.3
v 0.2 0.3 -0.3
v 0.3 0.3 -0.3
v 0.2 0.4 -0.3
v 0.3 0.4 -0.3
v 0.2 0.5 -0.3
v 0.3 0.5 -0.3
v 0.2 0.6 -0.3
v 0.3 0.6 -0.3
v 0.2 0.7 -0.3
v 0.3 0.7 -0.3
v 0.2 1 -0.3
v 0.3 1 -0.3
v 0.2 1.1 -0.3
v 0.3 1.1 -0.3
v 0.1 0.1 -0.2
v 0.2 0.1 -0.2
v 0.1 0.2 -0.2
v 0.2 0.2 -0.2
v 0.1 0.3 -0.2
v 0.2 0.3 -0.2
v 0.1 0.4 -0.2
v 0.2 0.4 -0.2
v 0.1 0.7 -0.2
v 0.2 0.7 -0.2
v 0.1 1 -0.2
v 0.2 1 -0.2
v 0 0.1 -0.1
v 0.1 0.1 -0.1
v 0.1 0.2 -0.1
v 0.1 0.3 -0.1
v 0 0.4 -0.1
v 0.1 0.4 -0.1
v -0.1 0.1 -5.96046e-08
v 0 0.1 -5.96046e-08
v -0.1 0.2 -5.96046e-08
v 0 0.2 -5.96046e-08
v -0.1 0.3 -5.96046e-08
v 0 0.3 -5.96046e-08
v -0.1 0.4 -5.96046e-08
v 0 0.4 -5.96046e-08
v -0.1 0.7 -5.96046e-08
v 0 0.7 -5.96046e-08
v -0.1 1 -5.96046e-08
v 0 1 -5.96046e-08
v -0.2 0.2 0.1
v -0.1 0.2 0.1
v -0.2 0.3 0.1
v -0.1 0.3 0.1
v -0.2 0.4 0.1
v -0.1 0.4 0.1
v -0.2 0.5 0.1
v -0.1 0.5 0.1
v -0.2 0.6 0.1
v -0.1 0.6 0.1
v -0.2 0.7 0.1
v -0.1 0.7 0.1
v -0.2 1 0.1
v -0.1 1 0.1
v -0.2 1.1 0.1
v -0.1 1.1 0.1
v -0.3 0.2 0.2
v -0.2 0.2 0.2
v -0.3 0.3 0.2
v -0.2 0.3 0.2
v -0.3 0.4 0.2
v -0.2 0.4 0.2
v -0.3 0.5 0.2
v -0.2 0.5 0.2
v -0.3 0.6 0.2
v -0.2 0.6 0.2
v -0.3 0.7 0.2
v -0.2 0.7 0.2
v -0.3 1 0.2
v -0.2 1 0.2
v -0.3 1.1 0.2
v -0.2 1.1 0.2
v -0.4 0.3 0.3
v -0.3 0.3 0.3
v -0.4 0.4 0.3
v -0.3 0.4 0.3
v -0.4 0.7 0.3
v -0.3 0.7 0.3
v -0.4 0.8 0.3
v -0.3 0.8 0.3
v -0.3 1 0.3
v -0.4 1.1 0.3
v -0.3 1.1 0.3
v -0.4 1.2 0.3
v -0.3 1.2 0.3
v -0.5 0.4 0.4
v -0.4 0.4 0.4
v -0.5 0.6 0.4
v -0.4 0.6 0.4
v -0.5 0.8 0.4
v -0.4 0.8 0.4
v -0.4 1.1 0.4
v -0.5 1.2 0.4
v -0.4 1.2 0.4
v 0.5 0.4 -0.5
v 0.6 0.4 -0.5
v 0.5 0.6 -0.5
v 0.6 0.6 -0.5
v 0.5 0.8 -0.5
v 0.6 0.8 -0.5
v 0.5 1.1 -0.5
v 0.5 1.2 -0.5
v 0.6 1.2 -0.5
v 0.4 0.3 -0.4
v 0.5 0.3 -0.4
v 0.4 0.4 -0.4
v 0.5 0.4 -0.4
v 0.4 0.7 -0.4
v 0.5 0.7 -0.4
v 0.4 0.8 -0.4
v 0.5 0.8 -0.4
v 0.4 1 -0.4
v 0.4 1.1 -0.4
v 0.5 1.1 -0.4
v 0.4 1.2 -0.4
v 0.5 1.2 -0.4
v 0.3 0.2 -0.3
v 0.4 0.2 -0.3
v 0.3 0.3 -0.3
v 0.4 0.3 -0.3
v 0.3 0.4 -0.3
v 0.4 0.4 -0.3
v 0.3 0.5 -0.3
v 0.4 0.5 -0.3
v 0.3 0.6 -0.3
v 0.4 0.6 -0.3
v 0.3 0.7 -0.3
v 0.4 0.7 -0.3
v 0.3 1 -0.3
v 0.4 1 -0.3
v 0.3 1.1 -0.3
v 0.4 1.1 -0.3
v 0.2 0.2 -0.2
v 0.3 0.2 -0.2
v 0.2 0.3 -0.2
v 0.3 0.3 -0.2
v 0.2 0.4 -0.2
v 0.3 0.4 -0.2
v 0.2 0.5 -0.2
v 0.3 0.5 -0.2
v 0.2 0.6 -0.2
v 0.3 0.6 -0.2
v 0.2 0.7 -0.2
v 0.3 0.7 -0.2
v 0.2 1 -0.2
v 0.3 1 -0.2
v 0.2 1.1 -0.2
v 0.3 1.1 -0.2
v 0.1 0.1 -0.1
v 0.2 0.1 -0.1
v 0.1 0.2 -0.1
v 0.2 0.2 -0.1
v 0.1 0.3 -0.1
v 0.2 0.3 -0.1
v 0.1 0.4 -0.1
v 0.2 0.4 -0.1
v 0.1 0.7 -0.1
v 0.2 0.7 -0.1
v 0.1 1 -0.1
v 0.2 1 -0.1
v 0 0.1 -5.96046e-08
v 0.1 0.1 -5.96046e-08
v 0 0.2 -5.96046e-08
v 0 0.3 -5.96046e-08
v 0 0.4 -5.96046e-08
v 0.1 0.4 -5.96046e-08
v -0.1 0.1 0.1
v 0 0.1 0.1
v -0.1 0.2 0.1
v 0 0.2 0.1
v -0.1 0.3 0.1
v 0 0.3 0.1
v -0.1 0.4 0.1
v 0 0.4 0.1
v -0.1 0.7 0.1
v 0 0.7 0.1
v -0.1 1 0.1
v 0 1 0.1
v -0.2 0.2 0.2
v -0.1 0.2 0.2
v -0.2 0.3 0.2
v -0.1 0.3 0.2
v -0.2 0.4 0.2
v -0.1 0.4 0.2
v -0.2 0.5 0.2
v -0.1 0.5 0.2
v -0.2 0.6 0.2
v -0.1 0.6 0.2
v -0.2 0.7 0.2
v -0.1 0.7 0.2
v -0.2 1 0.2
v -0.1 1 0.2
v -0.2 1.1 0.2
v -0.1 1.1 0.2
v -0.3 0.2 0.3
v -0.2 0.2 0.3
v -0.3 0.3 0.3
v -0.2 0.3 0.3
v -0.3 0.4 0.3
v -0.2 0.4 0.3
v -0.3 0.5 0.3
v -0.2 0.5 0.3
v -0.3 0.6 0.3
v -0.2 0.6 0.3
v -0.3 0.7 0.3
v -0.2 0.7 0.3
v -0.3 0.8 0.3
v -0.3 1 0.3
v -0.2 1 0.3
v -0.3 1.1 0.3
v -0.2 1.1 0.3
v -0.4 0.3 0.4
v -0.3 0.3 0.4
v -0.4 0.4 0.4
v -0.3 0.4 0.4
v -0.4 0.7 0.4
v -0.3 0.7 0.4
v -0.4 0.8 0.4
v -0.3 0.8 0.4
v -0.4 1.1 0.4
v -0.3 1.1 0.4
v -0.4 1.2 0.4
v -0.3 1.2 0.4
v -0.5 0.4 0.5
v -0.4 0.4 0.5
v -0.5 0.6 0.5
v -0.4 0.6 0.5
v -0.5 0.8 0.5
v -0.4 0.8 0.5
v -0.5 1.2 0.5
v -0.4 1.2 0.5

# faces
f 5/2/1 2/2/1 1/2/1
f 6/2/1 2/2/1 5/2/1
f 7/2/1 4/2/1 3/2/1
f 8/2/1 4/2/1 7/2/1
f 15/2/1 10/2/1 9/2/1
f 16/2/1 10/2/1 15/2/1
f 17/2/1 12/2/1 11/2/1
f 18/1/1 13/1/1 12/1/1
f 18/2/1 12/2/1 17/2/1
f 19/2/1 14/2/1 13/2/1
f 19/1/1 13/1/1 18/1/1
f 20/2/1 14/2/1 19/2/1
f 29/2/1 22/2/1 21/2/1
f 30/2/1 22/2/1 29/2/1
f 31/2/1 24/2/1 23/2/1
f 32/2/1 24/2/1 31/2/1
f 33/2/1 26/2/1 25/2/1
f 34/1/1 27/1/1 26/1/1
f 34/2/1 26/2/1 33/2/1
f 35/1/1 27/1/1 34/1/1
f 36/2/1 28/2/1 27/2/1
f 36/1/1 27/1/1 35/1/1
f 37/2/1 28/2/1 36/2/1
f 46/2/1 39/2/1 38/2/1
f 47/2/1 39/2/1 46/2/1
f 48/2/1 41/2/1 40/2/1
f 49/2/1 41/2/1 48/2/1
f 50/2/1 43/2/1 42/2/1
f 51/1/1 44/1/1 43/1/1
f 51/2/1 43/2/1 50/2/1
f 52/2/1 45/2/1 44/2/1
f 52/1/1 44/1/1 51/1/1
f 53/2/1 45/2/1 52/2/1
f 60/2/1 55/2/1 54/2/1
f 61/2/1 55/2/1 60/2/1
f 62/2/1 57/2/1 56/2/1
f 63/2/1 57/2/1 62/2/1
f 64/2/1 59/2/1 58/2/1
f 65/2/1 59/2/1 64/2/1
f 68/2/1 67/2/1 66/2/1
f 69/2/1 67/2/1 68/2/1
f 70/2/1 67/2/1 69/2/1
f 71/2/1 67/2/1 70/2/1
f 78/2/1 73/2/1 72/2/1
f 79/2/1 73/2/1 78/2/1
f 80/2/1 75/2/1 74/2/1
f 81/2/1 75/2/1 80/2/1
f 82/2/1 77/2/1 76/2/1
f 83/2/1 77/2/1 82/2/1
f 92/2/1 85/2/1 84/2/1
f 93/2/1 85/2/1 92/2/1
f 94/2/1 87/2/1 86/2/1
f 95/2/1 87/2/1 94/2/1
f 96/2/1 89/2/1 88/2/1
f 97/1/1 90/1/1 89/1/1
f 97/2/1 89/2/1 96/2/1
f 98/2/1 91/2/1 90/2/1
f 98/1/1 90/1/1 97/1/1
f 99/2/1 91/2/1 98/2/1
f 108/2/1 101/2/1 100/2/1
f 109/2/1 101/2/1 108/2/1
f 110/2/1 103/2/1 102/2/1
f 111/2/1 103/2/1 110/2/1
f 112/2/1 105/2/1 104/2/1
f 113/1/1 106/1/1 105/1/1
f 113/2/1 105/2/1 112/2/1
f 114/2/1 107/2/1 106/2/1
f 114/1/1 106/1/1 113/1/1
f 115/2/1 107/2/1 114/2/1
f 122/2/1 117/2/1 116/2/1
f 123/2/1 117/2/1 122/2/1
f 124/2/1 119/2/1 118/2/1
f 125/1/1 120/1/1 119/1/1
f 125/2/1 119/2/1 124/2/1
f 126/1/1 120/1/1 125/1/1
f 127/2/1 121/2/1 120/2/1
f 127/1/1 120/1/1 126/1/1
f 128/2/1 121/2/1 127/2/1
f 133/2/1 130/2/1 129/2/1
f 134/2/1 130/2/1 133/2/1
f 135/2/1 132/2/1 131/2/1
f 136/2/1 132/2/1 135/2/1
f 137/2/1 132/2/1 136/2/1
f 138/2/2 139/2/2 143/2/2
f 143/2/2 139/2/2 144/2/2
f 141/2/2 142/2/2 145/2/2
f 140/2/2 141/2/2 145/2/2
f 145/2/2 142/2/2 146/2/2
f 147/2/2 148/2/2 154/2/2
f 154/2/2 148/2/2 155/2/2
f 149/2/2 150/2/2 156/2/2
f 150/1/2 151/1/2 157/1/2
f 156/2/2 150/2/2 157/2/2
f 151/1/2 152/1/2 157/1/2
f 152/2/2 153/2/2 158/2/2
f 157/1/2 152/1/2 158/1/2
f 158/2/2 153/2/2 159/2/2
f 160/2/2 161/2/2 168/2/2
f 168/2/2 161/2/2 169/2/2
f 162/2/2 163/2/2 170/2/2
f 170/2/2 163/2/2 171/2/2
f 164/2/2 165/2/2 172/2/2
f 165/1/2 166/1/2 173/1/2
f 172/2/2 165/2/2 173/2/2
f 166/2/2 167/2/2 174/2/2
f 173/1/2 166/1/2 174/1/2
f 174/2/2 167/2/2 175/2/2
f 176/2/2 177/2/2 184/2/2
f 184/2/2 177/2/2 185/2/2
f 178/2/2 179/2/2 186/2/2
f 186/2/2 179/2/2 187/2/2
f 180/2/2 181/2/2 188/2/2
f 181/1/2 182/1/2 189/1/2
f 188/2/2 181/2/2 189/2/2
f 182/2/2 183/2/2 190/2/2
f 189/1/2 182/1/2 190/1/2
f 190/2/2 183/2/2 191/2/2
f 192/2/2 193/2/2 198/2/2
f 198/2/2 193/2/2 199/2/2
f 194/2/2 195/2/2 200/2/2
f 200/2/2 195/2/2 201/2/2
f 196/2/2 197/2/2 202/2/2
f 202/2/2 197/2/2 203/2/2
f 204/2/2 205/2/2 208/2/2
f 206/2/2 207/2/2 208/2/2
f 205/2/2 206/2/2 208/2/2
f 208/2/2 207/2/2 209/2/2
f 210/2/2 211/2/2 216/2/2
f 216/2/2 211/2/2 217/2/2
f 212/2/2 213/2/2 218/2/2
f 218/2/2 213/2/2 219/2/2
f 214/2/2 215/2/2 220/2/2
f 220/2/2 215/2/2 221/2/2
f 222/2/2 223/2/2 230/2/2
f 230/2/2 223/2/2 231/2/2
f 224/2/2 225/2/2 232/2/2
f 232/2/2 225/2/2 233/2/2
f 226/2/2 227/2/2 234/2/2
f 227/1/2 228/1/2 235/1/2
f 234/2/2 227/2/2 235/2/2
f 228/2/2 229/2/2 236/2/2
f 235/1/2 228/1/2 236/1/2
f 236/2/2 229/2/2 237/2/2
f 238/2/2 239/2/2 247/2/2
f 247/2/2 239/2/2 248/2/2
f 240/2/2 241/2/2 249/2/2
f 249/2/2 241/2/2 250/2/2
f 242/2/2 243/2/2 251/2/2
f 243/1/2 244/1/2 252/1/2
f 251/2/2 243/2/2 252/2/2
f 244/1/2 245/1/2 252/1/2
f 245/2/2 246/2/2 253/2/2
f 252/1/2 245/1/2 253/1/2
f 253/2/2 246/2/2 254/2/2
f 255/2/2 256/2/2 261/2/2
f 261/2/2 256/2/2 262/2/2
f 257/2/2 258/2/2 263/2/2
f 258/1/2 259/1/2 264/1/2
f 263/2/2 258/2/2 264/2/2
f 259/2/2 260/2/2 265/2/2
f 264/1/2 259/1/2 265/1/2
f 265/2/2 260/2/2 266/2/2
f 267/2/2 268/2/2 271/2/2
f 271/2/2 268/2/2 272/2/2
f 269/2/2 270/2/2 273/2/2
f 273/2/2 270/2/2 274/2/2
f 278/2/3 276/2/3 275/2/3
f 279/2/3 276/2/3 278/2/3
f 281/2/3 278/2/3 277/2/3
f 282/2/3 278/2/3 281/2/3
f 283/2/3 281/2/3 280/2/3
f 284/2/3 281/2/3 283/2/3
f 288/2/3 286/2/3 285/2/3
f 289/2/3 286/2/3 288/2/3
f 290/2/3 288/2/3 287/2/3
f 291/2/3 288/2/3 290/2/3
f 295/2/3 293/2/3 292/2/3
f 296/2/3 293/2/3 295/2/3
f 297/2/3 295/2/3 294/2/3
f 298/2/3 295/2/3 297/2/3
f 301/2/3 300/2/3 299/2/3
f 302/2/3 300/2/3 301/2/3
f 305/2/3 304/2/3 303/2/3
f 306/2/3 304/2/3 305/2/3
f 309/2/3 308/2/3 307/2/3
f 310/2/3 308/2/3 309/2/3
f 313/2/3 312/2/3 311/2/3
f 314/2/3 312/2/3 313/2/3
f 317/2/3 316/2/3 315/2/3
f 318/2/3 316/2/3 317/2/3
f 322/2/3 320/2/3 319/2/3
f 323/2/3 320/2/3 322/2/3
f 324/2/3 322/2/3 321/2/3
f 325/2/3 322/2/3 324/2/3
f 329/2/3 327/2/3 326/2/3
f 330/2/3 327/2/3 329/2/3
f 331/2/3 329/2/3 328/2/3
f 332/2/3 329/2/3 331/2/3
f 335/2/3 334/2/3 333/2/3
f 336/2/3 334/2/3 335/2/3
f 340/2/3 338/2/3 337/2/3
f 341/2/3 338/2/3 340/2/3
f 342/2/3 340/2/3 339/2/3
f 343/2/3 340/2/3 342/2/3
f 347/2/3 345/2/3 344/2/3
f 348/2/3 345/2/3 347/2/3
f 349/2/3 347/2/3 346/2/3
f 350/2/3 347/2/3 349/2/3
f 353/2/3 352/2/3 351/2/3
f 354/2/3 352/2/3 353/2/3
f 357/2/3 356/2/3 355/2/3
f 358/2/3 356/2/3 357/2/3
f 361/2/3 360/2/3 359/2/3
f 362/2/3 360/2/3 361/2/3
f 365/2/3 364/2/3 363/2/3
f 366/2/3 364/2/3 365/2/3
f 369/2/3 368/2/3 367/2/3
f 370/2/3 368/2/3 369/2/3
f 373/2/3 372/2/3 371/2/3
f 374/2/3 372/2/3 373/2/3
f 375/2/4 376/2/4 377/2/4
f 377/2/4 376/2/4 378/2/4
f 379/2/4 380/2/4 381/2/4
f 381/2/4 380/2/4 382/2/4
f 383/2/4 384/2/4 386/2/4
f 386/2/4 384/2/4 387/2/4
f 385/2/4 386/2/4 388/2/4
f 388/2/4 386/2/4 389/2/4
f 390/2/4 391/2/4 393/2/4
f 393/2/4 391/2/4 394/2/4
f 392/2/4 393/2/4 395/2/4
f 395/2/4 393/2/4 396/2/4
f 397/2/4 398/2/4 399/2/4
f 399/2/4 398/2/4 400/2/4
f 401/2/4 402/2/4 404/2/4
f 404/2/4 402/2/4 405/2/4
f 403/2/4 404/2/4 407/2/4
f 407/2/4 404/2/4 408/2/4
f 406/2/4 407/2/4 409/2/4
f 409/2/4 407/2/4 410/2/4
f 411/2/4 412/2/4 413/2/4
f 413/2/4 412/2/4 414/2/4
f 415/2/4 416/2/4 418/2/4
f 418/2/4 416/2/4 419/2/4
f 417/2/4 418/2/4 420/2/4
f 420/2/4 418/2/4 421/2/4
f 422/2/4 423/2/4 425/2/4
f 425/2/4 423/2/4 426/2/4
f 424/2/4 425/2/4 427/2/4
f 427/2/4 425/2/4 428/2/4
f 429/2/4 430/2/4 431/2/4
f 431/2/4 430/2/4 432/2/4
f 433/2/4 434/2/4 435/2/4
f 435/2/4 434/2/4 436/2/4
f 437/2/4 438/2/4 439/2/4
f 439/2/4 438/2/4 440/2/4
f 441/2/4 442/2/4 443/2/4
f 443/2/4 442/2/4 444/2/4
f 445/2/4 446/2/4 448/2/4
f 448/2/4 446/2/4 449/2/4
f 447/2/4 448/2/4 450/2/4
f 450/2/4 448/2/4 451/2/4
f 452/2/4 453/2/4 455/2/4
f 455/2/4 453/2/4 456/2/4
f 454/2/4 455/2/4 457/2/4
f 457/2/4 455/2/4 458/2/4
f 459/2/4 460/2/4 462/2/4
f 462/2/4 460/2/4 463/2/4
f 461/2/4 462/2/4 464/2/4
f 464/2/4 462/2/4 465/2/4
f 466/2/4 467/2/4 469/2/4
f 469/2/4 467/2/4 470/2/4
f 468/2/4 469/2/4 471/2/4
f 471/2/4 469/2/4 472/2/4
f 475/2/5 474/2/5 473/2/5
f 476/2/5 474/2/5 475/2/5
f 479/2/5 478/2/5 477/2/5
f 480/2/5 478/2/5 479/2/5
f 483/2/5 482/2/5 481/2/5
f 484/2/5 482/2/5 483/2/5
f 487/2/5 486/2/5 485/2/5
f 488/2/5 486/2/5 487/2/5
f 489/1/5 488/1/5 487/1/5
f 490/1/5 488/1/5 489/1/5
f 491/2/5 490/2/5 489/2/5
f 492/2/5 490/2/5 491/2/5
f 495/2/5 494/2/5 493/2/5
f 496/2/5 494/2/5 495/2/5
f 499/2/5 498/2/5 497/2/5
f 500/2/5 498/2/5 499/2/5
f 503/2/5 502/2/5 501/2/5
f 504/2/5 502/2/5 503/2/5
f 505/1/5 504/1/5 503/1/5
f 506/1/5 505/1/5 503/1/5
f 507/1/5 505/1/5 506/1/5
f 508/2/5 507/2/5 506/2/5
f 509/2/5 507/2/5 508/2/5
f 512/2/5 511/2/5 510/2/5
f 513/2/5 511/2/5 512/2/5
f 516/2/5 515/2/5 514/2/5
f 517/2/5 515/2/5 516/2/5
f 520/2/5 519/2/5 518/2/5
f 521/2/5 519/2/5 520/2/5
f 522/1/5 521/1/5 520/1/5
f 523/1/5 521/1/5 522/1/5
f 524/2/5 523/2/5 522/2/5
f 525/2/5 523/2/5 524/2/5
f 528/2/5 527/2/5 526/2/5
f 529/2/5 527/2/5 528/2/5
f 532/2/5 531/2/5 530/2/5
f 533/2/5 531/2/5 532/2/5
f 536/2/5 535/2/5 534/2/5
f 537/2/5 535/2/5 536/2/5
f 540/2/5 539/2/5 538/2/5
f 541/2/5 540/2/5 538/2/5
f 542/2/5 541/2/5 538/2/5
f 543/2/5 541/2/5 542/2/5
f 546/2/5 545/2/5 544/2/5
f 547/2/5 545/2/5 546/2/5
f 550/2/5 549/2/5 548/2/5
f 551/2/5 549/2/5 550/2/5
f 554/2/5 553/2/5 552/2/5
f 555/2/5 553/2/5 554/2/5
f 558/2/5 557/2/5 556/2/5
f 559/2/5 557/2/5 558/2/5
f 562/2/5 561/2/5 560/2/5
f 563/2/5 561/2/5 562/2/5
f 566/2/5 565/2/5 564/2/5
f 567/2/5 565/2/5 566/2/5
f 568/1/5 567/1/5 566/1/5
f 569/1/5 567/1/5 568/1/5
f 570/2/5 569/2/5 568/2/5
f 571/2/5 569/2/5 570/2/5
f 574/2/5 573/2/5 572/2/5
f 575/2/5 573/2/5 574/2/5
f 578/2/5 577/2/5 576/2/5
f 579/2/5 577/2/5 578/2/5
f 582/2/5 581/2/5 580/2/5
f 583/2/5 581/2/5 582/2/5
f 584/1/5 583/1/5 582/1/5
f 585/1/5 583/1/5 584/1/5
f 586/2/5 585/2/5 584/2/5
f 587/2/5 585/2/5 586/2/5
f 590/2/5 589/2/5 588/2/5
f 591/2/5 589/2/5 590/2/5
f 594/2/5 593/2/5 592/2/5
f 595/2/5 593/2/5 594/2/5
f 596/1/5 595/1/5 594/1/5
f 597/1/5 596/1/5 594/1/5
f 598/1/5 596/1/5 597/1/5
f 599/2/5 598/2/5 597/2/5
f 600/2/5 598/2/5 599/2/5
f 603/2/5 602/2/5 601/2/5
f 604/2/5 602/2/5 603/2/5
f 607/2/5 606/2/5 605/2/5
f 608/2/5 607/2/5 605/2/5
f 609/2/5 607/2/5 608/2/5
f 610/2/6 611/2/6 612/2/6
f 612/2/6 611/2/6 613/2/6
f 614/2/6 615/2/6 616/2/6
f 616/2/6 615/2/6 617/2/6
f 617/2/6 615/2/6 618/2/6
f 619/2/6 620/2/6 621/2/6
f 621/2/6 620/2/6 622/2/6
f 623/2/6 624/2/6 625/2/6
f 625/2/6 624/2/6 626/2/6
f 625/1/6 626/1/6 627/1/6
f 627/1/6 626/1/6 628/1/6
f 628/1/6 626/1/6 629/1/6
f 628/2/6 629/2/6 630/2/6
f 630/2/6 629/2/6 631/2/6
f 632/2/6 633/2/6 634/2/6
f 634/2/6 633/2/6 635/2/6
f 636/2/6 637/2/6 638/2/6
f 638/2/6 637/2/6 639/2/6
f 640/2/6 641/2/6 642/2/6
f 642/2/6 641/2/6 643/2/6
f 642/1/6 643/1/6 644/1/6
f 644/1/6 643/1/6 645/1/6
f 644/2/6 645/2/6 646/2/6
f 646/2/6 645/2/6 647/2/6
f 648/2/6 649/2/6 650/2/6
f 650/2/6 649/2/6 651/2/6
f 652/2/6 653/2/6 654/2/6
f 654/2/6 653/2/6 655/2/6
f 656/2/6 657/2/6 658/2/6
f 658/2/6 657/2/6 659/2/6
f 658/1/6 659/1/6 660/1/6
f 660/1/6 659/1/6 661/1/6
f 660/2/6 661/2/6 662/2/6
f 662/2/6 661/2/6 663/2/6
f 664/2/6 665/2/6 666/2/6
f 666/2/6 665/2/6 667/2/6
f 668/2/6 669/2/6 670/2/6
f 670/2/6 669/2/6 671/2/6
f 672/2/6 673/2/6 674/2/6
f 674/2/6 673/2/6 675/2/6
f 676/2/6 677/2/6 678/2/6
f 678/2/6 677/2/6 679/2/6
f 679/2/6 677/2/6 680/2/6
f 680/2/6 677/2/6 681/2/6
f 682/2/6 683/2/6 684/2/6
f 684/2/6 683/2/6 685/2/6
f 686/2/6 687/2/6 688/2/6
f 688/2/6 687/2/6 689/2/6
f 690/2/6 691/2/6 692/2/6
f 692/2/6 691/2/6 693/2/6
f 694/2/6 695/2/6 696/2/6
f 696/2/6 695/2/6 697/2/6
f 698/2/6 699/2/6 700/2/6
f 700/2/6 699/2/6 701/2/6
f 702/2/6 703/2/6 704/2/6
f 704/2/6 703/2/6 705/2/6
f 704/1/6 705/1/6 706/1/6
f 706/1/6 705/1/6 707/1/6
f 706/2/6 707/2/6 708/2/6
f 708/2/6 707/2/6 709/2/6
f 710/2/6 711/2/6 712/2/6
f 712/2/6 711/2/6 713/2/6
f 714/2/6 715/2/6 716/2/6
f 716/2/6 715/2/6 717/2/6
f 718/2/6 719/2/6 720/2/6
f 720/2/6 719/2/6 721/2/6
f 720/1/6 721/1/6 722/1/6
f 722/1/6 721/1/6 723/1/6
f 723/1/6 721/1/6 724/1/6
f 723/2/6 724/2/6 725/2/6
f 725/2/6 724/2/6 726/2/6
f 727/2/6 728/2/6 729/2/6
f 729/2/6 728/2/6 730/2/6
f 731/2/6 732/2/6 733/2/6
f 733/2/6 732/2/6 734/2/6
f 733/1/6 734/1/6 735/1/6
f 735/1/6 734/1/6 736/1/6
f 735/2/6 736/2/6 737/2/6
f 737/2/6 736/2/6 738/2/6
f 739/2/6 740/2/6 741/2/6
f 741/2/6 740/2/6 742/2/6
f 743/2/6 744/2/6 745/2/6
f 745/2/6 744/2/6 746/2/6
