# MagicaVoxel @ Ephtracy

# group
o 

# material
mtllib RockBreak2.mtl
usemtl palette

# normals
vn -1 0 0
vn 1 0 0
vn 0 0 1
vn 0 0 -1
vn 0 -1 0
vn 0 1 0

# texcoords
vt 0.00195312 0.5
vt 0.00585938 0.5
vt 0.00976562 0.5

# verts
v -0.8 0 0.6
v -0.8 0 0.4
v -0.8 0.1 0.6
v -0.8 0.1 0.4
v -0.7 0.1 0.5
v -0.7 0.1 0.4
v -0.7 0.1 -0.2
v -0.7 0.1 -0.4
v -0.7 0.2 0.5
v -0.7 0.2 0.4
v -0.7 0.2 -0.2
v -0.7 0.2 -0.4
v -0.6 0.1 -0.1
v -0.6 0.1 -0.2
v -0.6 0.2 -0.1
v -0.6 0.2 -0.2
v -0.6 0.2 -0.3
v -0.6 0.3 -0.1
v -0.6 0.3 -0.3
v -0.5 0 -0.1
v -0.5 0 -0.3
v -0.5 0.1 0
v -0.5 0.1 -0.1
v -0.5 0.1 -0.3
v -0.5 0.2 0
v -0.5 0.2 -0.1
v -0.3 0 0.3
v -0.3 0 0.1
v -0.3 0.1 0.3
v -0.3 0.1 0.2
v -0.3 0.1 0.1
v -0.3 0.2 0.2
v -0.3 0.2 0.1
v -0.1 0 -0.5
v -0.1 0 -0.8
v -0.1 0.1 -0.5
v -0.1 0.1 -0.8
v -0.1 0.1 -0.9
v -0.1 0.2 -0.5
v -0.1 0.2 -0.9
v 0 0.2 -0.6
v 0 0.2 -0.9
v 0 0.4 -0.6
v 0 0.4 -0.9
v 0.1 0 -0.1
v 0.1 0 -0.2
v 0.1 0.1 -0.1
v 0.1 0.1 -0.2
v 0.1 0.4 -0.7
v 0.1 0.4 -0.9
v 0.1 0.5 -0.8
v 0.1 0.5 -0.9
v 0.1 0.6 -0.7
v 0.1 0.6 -0.8
v 0.3 0.2 0.8
v 0.3 0.2 0.4
v 0.3 0.3 0.8
v 0.3 0.3 0.4
v 0.4 0.1 0.7
v 0.4 0.1 0.5
v 0.4 0.2 0.7
v 0.4 0.2 0.5
v 0.4 0.3 0.7
v 0.4 0.3 0.4
v 0.4 0.4 0.7
v 0.4 0.4 0.4
v 0.5 0 -0.1
v 0.5 0 -0.3
v 0.5 0.1 0.8
v 0.5 0.1 0.7
v 0.5 0.1 -0.1
v 0.5 0.1 -0.3
v 0.5 0.1 -0.4
v 0.5 0.2 0.8
v 0.5 0.2 0.7
v 0.5 0.2 -0.1
v 0.5 0.2 -0.4
v 0.5 0.4 0.6
v 0.5 0.4 0.5
v 0.5 0.5 0.6
v 0.5 0.5 0.5
v 0.6 0.2 -0.2
v 0.6 0.2 -0.3
v 0.6 0.3 -0.2
v 0.6 0.3 -0.3
v -0.6 0 0.6
v -0.6 0 0.4
v -0.6 0.1 0.6
v -0.6 0.1 0.5
v -0.6 0.2 0.5
v -0.6 0.2 0.4
v -0.4 0 -0.1
v -0.4 0 -0.3
v -0.4 0.1 -0.1
v -0.4 0.1 -0.3
v -0.4 0.2 -0.1
v -0.4 0.2 -0.3
v -0.4 0.3 -0.1
v -0.4 0.3 -0.3
v -0.3 0.1 0
v -0.3 0.1 -0.4
v -0.3 0.2 0
v -0.3 0.2 -0.4
v -0.2 0.1 0.2
v -0.2 0.1 0.1
v -0.2 0.2 0.2
v -0.2 0.2 0.1
v -0.1 0 0.3
v -0.1 0 0.1
v -0.1 0.1 0.3
v -0.1 0.1 0.1
v 0.2 0 -0.1
v 0.2 0 -0.2
v 0.2 0 -0.5
v 0.2 0 -0.8
v 0.2 0.1 -0.1
v 0.2 0.1 -0.2
v 0.2 0.1 -0.5
v 0.2 0.1 -0.8
v 0.2 0.5 -0.7
v 0.2 0.5 -0.8
v 0.2 0.6 -0.7
v 0.2 0.6 -0.8
v 0.3 0.1 -0.5
v 0.3 0.1 -0.9
v 0.3 0.2 -0.5
v 0.3 0.2 -0.6
v 0.3 0.2 -0.9
v 0.3 0.4 -0.6
v 0.3 0.4 -0.7
v 0.3 0.5 -0.7
v 0.3 0.5 -0.9
v 0.6 0.1 0.8
v 0.6 0.1 0.5
v 0.6 0.2 0.8
v 0.6 0.2 0.5
v 0.6 0.4 0.6
v 0.6 0.4 0.5
v 0.6 0.5 0.6
v 0.6 0.5 0.5
v 0.7 0 -0.1
v 0.7 0 -0.3
v 0.7 0.1 -0.1
v 0.7 0.1 -0.3
v 0.7 0.2 0.8
v 0.7 0.2 0.4
v 0.7 0.2 -0.2
v 0.7 0.2 -0.3
v 0.7 0.3 0.8
v 0.7 0.3 0.7
v 0.7 0.3 -0.2
v 0.7 0.3 -0.3
v 0.7 0.4 0.7
v 0.7 0.4 0.4
v 0.8 0.1 -0.1
v 0.8 0.1 -0.4
v 0.8 0.2 -0.1
v 0.8 0.2 -0.4
v 0.3 0.2 0.8
v 0.3 0.3 0.8
v 0.5 0.1 0.8
v 0.5 0.2 0.8
v 0.5 0.3 0.8
v 0.6 0.1 0.8
v 0.6 0.2 0.8
v 0.7 0.2 0.8
v 0.7 0.3 0.8
v 0.4 0.1 0.7
v 0.4 0.2 0.7
v 0.4 0.3 0.7
v 0.4 0.4 0.7
v 0.5 0.1 0.7
v 0.5 0.2 0.7
v 0.5 0.3 0.7
v 0.6 0.3 0.7
v 0.6 0.4 0.7
v 0.7 0.3 0.7
v 0.7 0.4 0.7
v -0.8 0 0.6
v -0.8 0.1 0.6
v -0.6 0 0.6
v -0.6 0.1 0.6
v 0.5 0.4 0.6
v 0.5 0.5 0.6
v 0.6 0.4 0.6
v 0.6 0.5 0.6
v -0.7 0.1 0.5
v -0.7 0.2 0.5
v -0.6 0.1 0.5
v -0.6 0.2 0.5
v -0.3 0 0.3
v -0.3 0.1 0.3
v -0.2 0 0.3
v -0.2 0.1 0.3
v -0.1 0 0.3
v -0.1 0.1 0.3
v -0.3 0.1 0.2
v -0.3 0.2 0.2
v -0.2 0.1 0.2
v -0.2 0.2 0.2
v -0.5 0.1 0
v -0.5 0.2 0
v -0.4 0.1 0
v -0.4 0.2 0
v -0.3 0.1 0
v -0.3 0.2 0
v -0.6 0.1 -0.1
v -0.6 0.2 -0.1
v -0.6 0.3 -0.1
v -0.5 0 -0.1
v -0.5 0.1 -0.1
v -0.5 0.2 -0.1
v -0.4 0 -0.1
v -0.4 0.1 -0.1
v -0.4 0.2 -0.1
v -0.4 0.3 -0.1
v 0.1 0 -0.1
v 0.1 0.1 -0.1
v 0.2 0 -0.1
v 0.2 0.1 -0.1
v 0.5 0 -0.1
v 0.5 0.1 -0.1
v 0.5 0.2 -0.1
v 0.6 0.1 -0.1
v 0.6 0.2 -0.1
v 0.7 0 -0.1
v 0.7 0.1 -0.1
v 0.7 0.2 -0.1
v 0.8 0.1 -0.1
v 0.8 0.2 -0.1
v -0.7 0.1 -0.2
v -0.7 0.2 -0.2
v -0.6 0.1 -0.2
v -0.6 0.2 -0.2
v 0.6 0.2 -0.2
v 0.6 0.3 -0.2
v 0.7 0.2 -0.2
v 0.7 0.3 -0.2
v -0.1 0 -0.5
v -0.1 0.1 -0.5
v -0.1 0.2 -0.5
v 0 0.1 -0.5
v 0 0.2 -0.5
v 0.2 0 -0.5
v 0.2 0.1 -0.5
v 0.2 0.2 -0.5
v 0.3 0.1 -0.5
v 0.3 0.2 -0.5
v 0 0.2 -0.6
v 0 0.4 -0.6
v 0.1 0.2 -0.6
v 0.1 0.4 -0.6
v 0.2 0.2 -0.6
v 0.3 0.2 -0.6
v 0.3 0.4 -0.6
v 0.1 0.4 -0.7
v 0.1 0.6 -0.7
v 0.2 0.4 -0.7
v 0.2 0.5 -0.7
v 0.2 0.6 -0.7
v 0.3 0.4 -0.7
v 0.3 0.5 -0.7
v 0.4 0.1 0.5
v 0.4 0.2 0.5
v 0.5 0.1 0.5
v 0.5 0.2 0.5
v 0.5 0.4 0.5
v 0.5 0.5 0.5
v 0.6 0.1 0.5
v 0.6 0.2 0.5
v 0.6 0.4 0.5
v 0.6 0.5 0.5
v -0.8 0 0.4
v -0.8 0.1 0.4
v -0.7 0.1 0.4
v -0.7 0.2 0.4
v -0.6 0 0.4
v -0.6 0.2 0.4
v 0.3 0.2 0.4
v 0.3 0.3 0.4
v 0.4 0.3 0.4
v 0.4 0.4 0.4
v 0.5 0.2 0.4
v 0.5 0.3 0.4
v 0.6 0.3 0.4
v 0.6 0.4 0.4
v 0.7 0.2 0.4
v 0.7 0.4 0.4
v -0.3 0 0.1
v -0.3 0.1 0.1
v -0.3 0.2 0.1
v -0.2 0 0.1
v -0.2 0.1 0.1
v -0.2 0.2 0.1
v -0.1 0 0.1
v -0.1 0.1 0.1
v 0.1 0 -0.2
v 0.1 0.1 -0.2
v 0.2 0 -0.2
v 0.2 0.1 -0.2
v -0.6 0.2 -0.3
v -0.6 0.3 -0.3
v -0.5 0 -0.3
v -0.5 0.1 -0.3
v -0.4 0 -0.3
v -0.4 0.1 -0.3
v -0.4 0.2 -0.3
v -0.4 0.3 -0.3
v 0.5 0 -0.3
v 0.5 0.1 -0.3
v 0.6 0.1 -0.3
v 0.6 0.2 -0.3
v 0.6 0.3 -0.3
v 0.7 0 -0.3
v 0.7 0.1 -0.3
v 0.7 0.2 -0.3
v 0.7 0.3 -0.3
v -0.7 0.1 -0.4
v -0.7 0.2 -0.4
v -0.6 0.1 -0.4
v -0.6 0.2 -0.4
v -0.4 0.1 -0.4
v -0.4 0.2 -0.4
v -0.3 0.1 -0.4
v -0.3 0.2 -0.4
v 0.5 0.1 -0.4
v 0.5 0.2 -0.4
v 0.6 0.1 -0.4
v 0.6 0.2 -0.4
v 0.7 0.1 -0.4
v 0.7 0.2 -0.4
v 0.8 0.1 -0.4
v 0.8 0.2 -0.4
v -0.1 0 -0.8
v -0.1 0.1 -0.8
v 0 0.1 -0.8
v 0.1 0.5 -0.8
v 0.1 0.6 -0.8
v 0.2 0 -0.8
v 0.2 0.1 -0.8
v 0.2 0.5 -0.8
v 0.2 0.6 -0.8
v -0.1 0.1 -0.9
v -0.1 0.2 -0.9
v 0 0.1 -0.9
v 0 0.2 -0.9
v 0 0.4 -0.9
v 0.1 0.2 -0.9
v 0.1 0.4 -0.9
v 0.1 0.5 -0.9
v 0.2 0.1 -0.9
v 0.2 0.2 -0.9
v 0.2 0.4 -0.9
v 0.2 0.5 -0.9
v 0.3 0.1 -0.9
v 0.3 0.2 -0.9
v 0.3 0.5 -0.9
v -0.8 0 0.6
v -0.6 0 0.6
v -0.8 0 0.4
v -0.6 0 0.4
v -0.3 0 0.3
v -0.2 0 0.3
v -0.1 0 0.3
v -0.3 0 0.1
v -0.2 0 0.1
v -0.1 0 0.1
v -0.5 0 -0.1
v -0.4 0 -0.1
v 0.1 0 -0.1
v 0.2 0 -0.1
v 0.5 0 -0.1
v 0.7 0 -0.1
v 0.1 0 -0.2
v 0.2 0 -0.2
v -0.5 0 -0.3
v -0.4 0 -0.3
v 0.5 0 -0.3
v 0.7 0 -0.3
v -0.1 0 -0.5
v 0.2 0 -0.5
v -0.1 0 -0.8
v 0.2 0 -0.8
v 0.5 0.1 0.8
v 0.6 0.1 0.8
v 0.4 0.1 0.7
v 0.5 0.1 0.7
v 0.4 0.1 0.5
v 0.5 0.1 0.5
v 0.6 0.1 0.5
v -0.5 0.1 0
v -0.4 0.1 0
v -0.3 0.1 0
v -0.6 0.1 -0.1
v -0.5 0.1 -0.1
v -0.4 0.1 -0.1
v 0.7 0.1 -0.1
v 0.8 0.1 -0.1
v -0.7 0.1 -0.2
v -0.6 0.1 -0.2
v -0.5 0.1 -0.3
v -0.4 0.1 -0.3
v 0.5 0.1 -0.3
v 0.6 0.1 -0.3
v 0.7 0.1 -0.3
v -0.7 0.1 -0.4
v -0.6 0.1 -0.4
v -0.4 0.1 -0.4
v -0.3 0.1 -0.4
v 0.5 0.1 -0.4
v 0.6 0.1 -0.4
v 0.7 0.1 -0.4
v 0.8 0.1 -0.4
v 0.2 0.1 -0.5
v 0.3 0.1 -0.5
v -0.1 0.1 -0.8
v 0 0.1 -0.8
v 0.2 0.1 -0.8
v -0.1 0.1 -0.9
v 0 0.1 -0.9
v 0.2 0.1 -0.9
v 0.3 0.1 -0.9
v 0.3 0.2 0.8
v 0.5 0.2 0.8
v 0.6 0.2 0.8
v 0.7 0.2 0.8
v 0.4 0.2 0.7
v 0.5 0.2 0.7
v 0.4 0.2 0.5
v 0.5 0.2 0.5
v 0.6 0.2 0.5
v 0.3 0.2 0.4
v 0.5 0.2 0.4
v 0.7 0.2 0.4
v -0.8 0.1 0.6
v -0.6 0.1 0.6
v -0.7 0.1 0.5
v -0.6 0.1 0.5
v -0.8 0.1 0.4
v -0.7 0.1 0.4
v -0.3 0.1 0.3
v -0.2 0.1 0.3
v -0.1 0.1 0.3
v -0.3 0.1 0.2
v -0.2 0.1 0.2
v -0.2 0.1 0.1
v -0.1 0.1 0.1
v 0.1 0.1 -0.1
v 0.2 0.1 -0.1
v 0.1 0.1 -0.2
v 0.2 0.1 -0.2
v -0.7 0.2 0.5
v -0.6 0.2 0.5
v -0.7 0.2 0.4
v -0.6 0.2 0.4
v -0.3 0.2 0.2
v -0.2 0.2 0.2
v -0.3 0.2 0.1
v -0.2 0.2 0.1
v -0.5 0.2 0
v -0.4 0.2 0
v -0.3 0.2 0
v -0.5 0.2 -0.1
v -0.4 0.2 -0.1
v 0.5 0.2 -0.1
v 0.6 0.2 -0.1
v 0.7 0.2 -0.1
v 0.8 0.2 -0.1
v -0.7 0.2 -0.2
v -0.6 0.2 -0.2
v 0.6 0.2 -0.2
v 0.7 0.2 -0.2
v -0.6 0.2 -0.3
v -0.4 0.2 -0.3
v 0.6 0.2 -0.3
v 0.7 0.2 -0.3
v -0.7 0.2 -0.4
v -0.6 0.2 -0.4
v -0.4 0.2 -0.4
v -0.3 0.2 -0.4
v 0.5 0.2 -0.4
v 0.6 0.2 -0.4
v 0.7 0.2 -0.4
v 0.8 0.2 -0.4
v -0.1 0.2 -0.5
v 0 0.2 -0.5
v 0.2 0.2 -0.5
v 0.3 0.2 -0.5
v 0 0.2 -0.6
v 0.1 0.2 -0.6
v 0.2 0.2 -0.6
v 0.3 0.2 -0.6
v -0.1 0.2 -0.9
v 0 0.2 -0.9
v 0.3 0.3 0.8
v 0.5 0.3 0.8
v 0.7 0.3 0.8
v 0.4 0.3 0.7
v 0.5 0.3 0.7
v 0.6 0.3 0.7
v 0.7 0.3 0.7
v 0.3 0.3 0.4
v 0.4 0.3 0.4
v -0.6 0.3 -0.1
v -0.4 0.3 -0.1
v 0.6 0.3 -0.2
v 0.7 0.3 -0.2
v -0.6 0.3 -0.3
v -0.4 0.3 -0.3
v 0.6 0.3 -0.3
v 0.7 0.3 -0.3
v 0.4 0.4 0.7
v 0.6 0.4 0.7
v 0.7 0.4 0.7
v 0.5 0.4 0.6
v 0.6 0.4 0.6
v 0.5 0.4 0.5
v 0.6 0.4 0.5
v 0.4 0.4 0.4
v 0.6 0.4 0.4
v 0.7 0.4 0.4
v 0 0.4 -0.6
v 0.1 0.4 -0.6
v 0.3 0.4 -0.6
v 0.1 0.4 -0.7
v 0.2 0.4 -0.7
v 0.3 0.4 -0.7
v 0 0.4 -0.9
v 0.1 0.4 -0.9
v 0.5 0.5 0.6
v 0.6 0.5 0.6
v 0.5 0.5 0.5
v 0.6 0.5 0.5
v 0.2 0.5 -0.7
v 0.3 0.5 -0.7
v 0.1 0.5 -0.8
v 0.2 0.5 -0.8
v 0.1 0.5 -0.9
v 0.2 0.5 -0.9
v 0.3 0.5 -0.9
v 0.1 0.6 -0.7
v 0.2 0.6 -0.7
v 0.1 0.6 -0.8
v 0.2 0.6 -0.8

# faces
f 3/1/1 2/1/1 1/1/1
f 4/1/1 2/1/1 3/1/1
f 9/1/1 6/1/1 5/1/1
f 10/1/1 6/1/1 9/1/1
f 11/2/1 8/2/1 7/2/1
f 12/2/1 8/2/1 11/2/1
f 15/3/1 14/3/1 13/3/1
f 16/3/1 14/3/1 15/3/1
f 18/2/1 16/2/1 15/2/1
f 18/2/1 17/2/1 16/2/1
f 19/2/1 17/2/1 18/2/1
f 23/1/1 21/1/1 20/1/1
f 24/1/1 21/1/1 23/1/1
f 25/3/1 23/3/1 22/3/1
f 26/3/1 23/3/1 25/3/1
f 29/3/1 28/3/1 27/3/1
f 30/3/1 28/3/1 29/3/1
f 31/3/1 28/3/1 30/3/1
f 32/2/1 31/2/1 30/2/1
f 33/2/1 31/2/1 32/2/1
f 36/1/1 35/1/1 34/1/1
f 37/1/1 35/1/1 36/1/1
f 39/2/1 37/2/1 36/2/1
f 39/2/1 38/2/1 37/2/1
f 40/2/1 38/2/1 39/2/1
f 43/2/1 42/2/1 41/2/1
f 44/2/1 42/2/1 43/2/1
f 47/3/1 46/3/1 45/3/1
f 48/3/1 46/3/1 47/3/1
f 51/2/1 50/2/1 49/2/1
f 52/2/1 50/2/1 51/2/1
f 53/2/1 51/2/1 49/2/1
f 54/2/1 51/2/1 53/2/1
f 57/2/1 56/2/1 55/2/1
f 58/2/1 56/2/1 57/2/1
f 61/3/1 60/3/1 59/3/1
f 62/3/1 60/3/1 61/3/1
f 65/2/1 64/2/1 63/2/1
f 66/2/1 64/2/1 65/2/1
f 71/1/1 68/1/1 67/1/1
f 72/1/1 68/1/1 71/1/1
f 74/1/1 70/1/1 69/1/1
f 75/1/1 70/1/1 74/1/1
f 76/2/1 73/2/1 72/2/1
f 76/2/1 72/2/1 71/2/1
f 77/2/1 73/2/1 76/2/1
f 80/2/1 79/2/1 78/2/1
f 81/2/1 79/2/1 80/2/1
f 84/2/1 83/2/1 82/2/1
f 85/2/1 83/2/1 84/2/1
f 86/1/2 87/1/2 88/1/2
f 88/1/2 87/1/2 89/1/2
f 89/1/2 87/1/2 90/1/2
f 90/1/2 87/1/2 91/1/2
f 92/1/2 93/1/2 94/1/2
f 94/1/2 93/1/2 95/1/2
f 96/2/2 97/2/2 98/2/2
f 98/2/2 97/2/2 99/2/2
f 100/1/2 101/1/2 102/1/2
f 102/1/2 101/1/2 103/1/2
f 104/2/2 105/2/2 106/2/2
f 106/2/2 105/2/2 107/2/2
f 108/1/2 109/1/2 110/1/2
f 110/1/2 109/1/2 111/1/2
f 112/3/2 113/3/2 116/3/2
f 116/3/2 113/3/2 117/3/2
f 114/1/2 115/1/2 118/1/2
f 118/1/2 115/1/2 119/1/2
f 120/2/2 121/2/2 122/2/2
f 122/2/2 121/2/2 123/2/2
f 124/1/2 125/1/2 126/1/2
f 126/1/2 125/1/2 127/1/2
f 127/1/2 125/1/2 128/1/2
f 127/3/2 128/3/2 129/3/2
f 129/3/2 128/3/2 130/3/2
f 130/3/2 128/3/2 131/3/2
f 131/3/2 128/3/2 132/3/2
f 133/1/2 134/1/2 135/1/2
f 135/1/2 134/1/2 136/1/2
f 137/2/2 138/2/2 139/2/2
f 139/2/2 138/2/2 140/2/2
f 141/1/2 142/1/2 143/1/2
f 143/1/2 142/1/2 144/1/2
f 145/3/2 146/3/2 149/3/2
f 149/3/2 146/3/2 150/3/2
f 147/2/2 148/2/2 151/2/2
f 151/2/2 148/2/2 152/2/2
f 150/3/2 146/3/2 153/3/2
f 153/3/2 146/3/2 154/3/2
f 155/1/2 156/1/2 157/1/2
f 157/1/2 156/1/2 158/1/2
f 162/2/3 160/2/3 159/2/3
f 163/2/3 160/2/3 162/2/3
f 164/1/3 162/1/3 161/1/3
f 165/3/3 163/3/3 162/3/3
f 165/1/3 162/1/3 164/1/3
f 166/3/3 163/3/3 165/3/3
f 167/3/3 163/3/3 166/3/3
f 172/3/3 169/3/3 168/3/3
f 173/3/3 169/3/3 172/3/3
f 174/2/3 171/2/3 170/2/3
f 175/2/3 171/2/3 174/2/3
f 176/2/3 171/2/3 175/2/3
f 177/3/3 176/3/3 175/3/3
f 178/3/3 176/3/3 177/3/3
f 181/1/3 180/1/3 179/1/3
f 182/1/3 180/1/3 181/1/3
f 185/2/3 184/2/3 183/2/3
f 186/2/3 184/2/3 185/2/3
f 189/1/3 188/1/3 187/1/3
f 190/1/3 188/1/3 189/1/3
f 193/3/3 192/3/3 191/3/3
f 194/3/3 192/3/3 193/3/3
f 195/1/3 194/1/3 193/1/3
f 196/1/3 194/1/3 195/1/3
f 199/2/3 198/2/3 197/2/3
f 200/2/3 198/2/3 199/2/3
f 203/3/3 202/3/3 201/3/3
f 204/3/3 202/3/3 203/3/3
f 205/1/3 204/1/3 203/1/3
f 206/1/3 204/1/3 205/1/3
f 211/3/3 208/3/3 207/3/3
f 212/2/3 209/2/3 208/2/3
f 212/3/3 208/3/3 211/3/3
f 213/1/3 211/1/3 210/1/3
f 214/1/3 211/1/3 213/1/3
f 215/2/3 209/2/3 212/2/3
f 216/2/3 209/2/3 215/2/3
f 219/3/3 218/3/3 217/3/3
f 220/3/3 218/3/3 219/3/3
f 224/1/3 222/1/3 221/1/3
f 224/2/3 223/2/3 222/2/3
f 225/2/3 223/2/3 224/2/3
f 226/1/3 224/1/3 221/1/3
f 227/3/3 225/3/3 224/3/3
f 227/1/3 224/1/3 226/1/3
f 228/3/3 225/3/3 227/3/3
f 229/1/3 228/1/3 227/1/3
f 230/1/3 228/1/3 229/1/3
f 233/2/3 232/2/3 231/2/3
f 234/2/3 232/2/3 233/2/3
f 237/2/3 236/2/3 235/2/3
f 238/2/3 236/2/3 237/2/3
f 242/1/3 240/1/3 239/1/3
f 242/2/3 241/2/3 240/2/3
f 243/2/3 241/2/3 242/2/3
f 244/1/3 242/1/3 239/1/3
f 245/3/3 243/3/3 242/3/3
f 245/1/3 242/1/3 244/1/3
f 246/3/3 243/3/3 245/3/3
f 247/1/3 246/1/3 245/1/3
f 248/1/3 246/1/3 247/1/3
f 251/2/3 250/2/3 249/2/3
f 252/2/3 250/2/3 251/2/3
f 253/3/3 252/3/3 251/3/3
f 254/3/3 252/3/3 253/3/3
f 255/3/3 252/3/3 254/3/3
f 258/2/3 257/2/3 256/2/3
f 259/2/3 257/2/3 258/2/3
f 260/2/3 257/2/3 259/2/3
f 261/3/3 259/3/3 258/3/3
f 262/3/3 259/3/3 261/3/3
f 263/3/4 264/3/4 265/3/4
f 265/3/4 264/3/4 266/3/4
f 265/1/4 266/1/4 269/1/4
f 269/1/4 266/1/4 270/1/4
f 267/2/4 268/2/4 271/2/4
f 271/2/4 268/2/4 272/2/4
f 273/1/4 274/1/4 275/1/4
f 273/1/4 275/1/4 277/1/4
f 275/1/4 276/1/4 277/1/4
f 277/1/4 276/1/4 278/1/4
f 279/2/4 280/2/4 281/2/4
f 279/2/4 281/2/4 283/2/4
f 281/2/4 282/2/4 283/2/4
f 283/2/4 282/2/4 284/2/4
f 283/3/4 284/3/4 285/3/4
f 284/2/4 282/2/4 285/2/4
f 285/2/4 282/2/4 286/2/4
f 283/3/4 285/3/4 287/3/4
f 285/3/4 286/3/4 287/3/4
f 287/3/4 286/3/4 288/3/4
f 289/3/4 290/3/4 292/3/4
f 290/2/4 291/2/4 293/2/4
f 292/3/4 290/3/4 293/3/4
f 293/2/4 291/2/4 294/2/4
f 292/1/4 293/1/4 295/1/4
f 295/1/4 293/1/4 296/1/4
f 297/3/4 298/3/4 299/3/4
f 299/3/4 298/3/4 300/3/4
f 303/1/4 304/1/4 305/1/4
f 305/1/4 304/1/4 306/1/4
f 301/2/4 302/2/4 307/2/4
f 307/2/4 302/2/4 308/2/4
f 309/1/4 310/1/4 311/1/4
f 309/1/4 311/1/4 314/1/4
f 314/1/4 311/1/4 315/1/4
f 312/2/4 313/2/4 316/2/4
f 316/2/4 313/2/4 317/2/4
f 318/2/4 319/2/4 320/2/4
f 320/2/4 319/2/4 321/2/4
f 320/3/4 321/3/4 322/3/4
f 322/3/4 321/3/4 323/3/4
f 322/1/4 323/1/4 324/1/4
f 324/1/4 323/1/4 325/1/4
f 326/2/4 327/2/4 328/2/4
f 328/2/4 327/2/4 329/2/4
f 328/3/4 329/3/4 330/3/4
f 330/3/4 329/3/4 331/3/4
f 330/1/4 331/1/4 332/1/4
f 332/1/4 331/1/4 333/1/4
f 334/1/4 335/1/4 336/1/4
f 334/1/4 336/1/4 339/1/4
f 339/1/4 336/1/4 340/1/4
f 337/2/4 338/2/4 341/2/4
f 341/2/4 338/2/4 342/2/4
f 343/2/4 344/2/4 345/2/4
f 345/2/4 344/2/4 346/2/4
f 345/3/4 346/3/4 348/3/4
f 346/2/4 347/2/4 348/2/4
f 348/2/4 347/2/4 349/2/4
f 345/3/4 348/3/4 351/3/4
f 348/3/4 349/3/4 351/3/4
f 351/3/4 349/3/4 352/3/4
f 349/2/4 350/2/4 353/2/4
f 352/3/4 349/3/4 353/3/4
f 353/2/4 350/2/4 354/2/4
f 351/1/4 352/1/4 355/1/4
f 352/3/4 353/3/4 356/3/4
f 355/1/4 352/1/4 356/1/4
f 353/3/4 354/3/4 356/3/4
f 356/3/4 354/3/4 357/3/4
f 360/1/5 359/1/5 358/1/5
f 361/1/5 359/1/5 360/1/5
f 365/3/5 363/3/5 362/3/5
f 366/1/5 364/1/5 363/1/5
f 366/3/5 363/3/5 365/3/5
f 367/1/5 364/1/5 366/1/5
f 374/3/5 371/3/5 370/3/5
f 375/3/5 371/3/5 374/3/5
f 376/1/5 369/1/5 368/1/5
f 377/1/5 369/1/5 376/1/5
f 378/1/5 373/1/5 372/1/5
f 379/1/5 373/1/5 378/1/5
f 382/1/5 381/1/5 380/1/5
f 383/1/5 381/1/5 382/1/5
f 387/1/5 385/1/5 384/1/5
f 388/3/5 387/3/5 386/3/5
f 389/1/5 385/1/5 387/1/5
f 389/3/5 387/3/5 388/3/5
f 390/1/5 385/1/5 389/1/5
f 395/3/5 392/3/5 391/3/5
f 396/1/5 393/1/5 392/1/5
f 396/3/5 392/3/5 395/3/5
f 400/3/5 395/3/5 394/3/5
f 401/3/5 395/3/5 400/3/5
f 402/1/5 393/1/5 396/1/5
f 405/1/5 398/1/5 397/1/5
f 406/2/5 400/2/5 399/2/5
f 407/3/5 401/3/5 400/3/5
f 407/2/5 400/2/5 406/2/5
f 407/3/5 402/3/5 401/3/5
f 408/1/5 393/1/5 402/1/5
f 408/3/5 402/3/5 407/3/5
f 409/1/5 393/1/5 408/1/5
f 410/2/5 404/2/5 403/2/5
f 411/3/5 405/3/5 404/3/5
f 411/2/5 404/2/5 410/2/5
f 412/1/5 398/1/5 405/1/5
f 412/3/5 405/3/5 411/3/5
f 413/1/5 398/1/5 412/1/5
f 418/1/5 415/1/5 414/1/5
f 419/2/5 417/2/5 416/2/5
f 420/3/5 418/3/5 417/3/5
f 420/2/5 417/2/5 419/2/5
f 421/1/5 415/1/5 418/1/5
f 421/3/5 418/3/5 420/3/5
f 422/1/5 415/1/5 421/1/5
f 427/2/5 424/2/5 423/2/5
f 428/2/5 424/2/5 427/2/5
f 429/2/5 427/2/5 423/2/5
f 431/3/5 426/3/5 425/3/5
f 432/2/5 430/2/5 429/2/5
f 432/2/5 429/2/5 423/2/5
f 433/3/5 431/3/5 430/3/5
f 433/2/5 430/2/5 432/2/5
f 434/3/5 426/3/5 431/3/5
f 434/3/5 431/3/5 433/3/5
f 435/1/6 436/1/6 437/1/6
f 437/1/6 436/1/6 438/1/6
f 435/1/6 437/1/6 439/1/6
f 439/1/6 437/1/6 440/1/6
f 441/3/6 442/3/6 444/3/6
f 442/1/6 443/1/6 445/1/6
f 444/3/6 442/3/6 445/3/6
f 445/1/6 443/1/6 446/1/6
f 446/1/6 443/1/6 447/1/6
f 448/3/6 449/3/6 450/3/6
f 450/3/6 449/3/6 451/3/6
f 452/1/6 453/1/6 454/1/6
f 454/1/6 453/1/6 455/1/6
f 456/2/6 457/2/6 458/2/6
f 458/2/6 457/2/6 459/2/6
f 460/3/6 461/3/6 463/3/6
f 461/1/6 462/1/6 464/1/6
f 463/3/6 461/3/6 464/3/6
f 465/2/6 466/2/6 471/2/6
f 466/3/6 467/3/6 471/3/6
f 467/1/6 468/1/6 472/1/6
f 471/3/6 467/3/6 472/3/6
f 469/2/6 470/2/6 473/2/6
f 464/1/6 462/1/6 474/1/6
f 465/2/6 471/2/6 475/2/6
f 472/1/6 468/1/6 476/1/6
f 469/2/6 473/2/6 477/2/6
f 473/3/6 474/3/6 478/3/6
f 477/2/6 473/2/6 478/2/6
f 474/1/6 462/1/6 479/1/6
f 478/3/6 474/3/6 479/3/6
f 479/1/6 462/1/6 480/1/6
f 465/2/6 475/2/6 481/2/6
f 475/3/6 476/3/6 482/3/6
f 481/2/6 475/2/6 482/2/6
f 476/1/6 468/1/6 483/1/6
f 482/3/6 476/3/6 483/3/6
f 483/1/6 468/1/6 484/1/6
f 485/2/6 486/2/6 489/2/6
f 486/3/6 487/3/6 489/3/6
f 489/3/6 487/3/6 490/3/6
f 487/1/6 488/1/6 491/1/6
f 490/3/6 487/3/6 491/3/6
f 491/1/6 488/1/6 492/1/6
f 485/2/6 489/2/6 493/2/6
f 493/2/6 489/2/6 494/2/6
f 495/2/6 496/2/6 498/2/6
f 496/3/6 497/3/6 499/3/6
f 498/2/6 496/2/6 499/2/6
f 499/3/6 497/3/6 500/3/6
f 500/3/6 497/3/6 501/3/6
f 495/2/6 498/2/6 502/2/6
f 502/2/6 498/2/6 503/2/6
f 504/2/6 505/2/6 508/2/6
f 508/2/6 505/2/6 509/2/6
f 506/2/6 507/2/6 510/2/6
f 510/2/6 507/2/6 511/2/6
f 512/2/6 513/2/6 515/2/6
f 513/3/6 514/3/6 516/3/6
f 515/2/6 513/2/6 516/2/6
f 512/2/6 515/2/6 517/2/6
f 516/3/6 514/3/6 518/3/6
f 512/2/6 517/2/6 519/2/6
f 517/2/6 518/2/6 519/2/6
f 518/3/6 514/3/6 520/3/6
f 519/2/6 518/2/6 520/2/6
f 520/3/6 514/3/6 521/3/6
f 522/2/6 523/2/6 525/2/6
f 523/3/6 524/3/6 525/3/6
f 525/3/6 524/3/6 526/3/6
f 526/3/6 524/3/6 527/3/6
f 522/2/6 525/2/6 528/2/6
f 528/2/6 525/2/6 529/2/6
f 530/2/6 531/2/6 532/2/6
f 532/2/6 531/2/6 533/2/6
f 534/3/6 535/3/6 537/3/6
f 536/2/6 537/2/6 538/2/6
f 537/3/6 535/3/6 539/3/6
f 538/2/6 537/2/6 539/2/6
f 539/3/6 535/3/6 540/3/6
f 541/2/6 542/2/6 543/2/6
f 543/2/6 542/2/6 544/2/6
